<svg width="159" height="321" viewBox="0 0 159 321" fill="none" xmlns="http://www.w3.org/2000/svg">
<path d="M112.32 114.519C113.34 114.399 114.27 114.579 115.19 114.999C115.62 115.189 116.09 115.219 116.53 115.389C117.03 115.579 117.49 115.859 117.94 116.139C119.12 116.879 120.41 117.769 120.65 119.139C120.76 119.769 120.63 120.419 120.48 121.049C120.19 122.349 120.01 123.739 119.23 124.839C118.38 126.039 118.03 127.549 117.5 128.899C116.02 132.679 114.43 136.409 112.84 140.139C111.52 143.239 110.09 146.489 107.38 148.479C106.53 149.109 105.39 149.599 104.44 149.139C103.65 148.759 103.27 147.849 102.99 147.019C100.68 140.059 100.61 132.369 102.79 125.369C103.83 122.029 105.45 118.739 108.14 116.489C109.34 115.489 110.77 114.699 112.32 114.509V114.519Z" fill="#1B5FF3"/>
<path d="M13.5999 68.0189C25.8999 62.0589 27.13 73.1489 27.15 73.3689C27.13 73.1689 26.6099 67.1489 35.9699 65.1089C38.3799 64.5889 38.99 65.6589 39.03 66.7789C39.07 67.8689 38.53 68.8989 37.66 69.5489L34.89 71.6289C33.6 72.5989 32.64 73.9589 32.16 75.4989L30.06 82.2088C29.71 83.3288 29.61 84.4989 29.76 85.6489C29.93 86.9389 30.05 88.2389 30.04 89.5389L30 94.0989L12 102.029L9.34995 96.2989L6.70993 89.3589C6.70993 89.3589 1.15994 74.0189 13.5899 67.9989L13.5999 68.0189Z" fill="#FFD88A"/>
<path d="M13.4001 69.0393L11.5201 59.6193C11.1701 57.8793 11.52 56.0693 12.5 54.5793C14.19 52.0093 16.93 48.3893 18.69 48.9593C20.49 49.5393 18.89 53.1693 17.63 55.4993C16.93 56.7993 16.91 58.3593 17.58 59.6793L21.82 68.1093L13.4101 69.0293L13.4001 69.0393Z" fill="#FFD88A"/>
<path d="M13.23 68.2092L11.5101 59.6291C11.1601 57.8891 11.51 56.0792 12.49 54.5892C14.18 52.0192 16.9201 48.3991 18.6801 48.9691C20.4801 49.5491 18.88 53.1791 17.62 55.5091C16.92 56.8091 16.9 58.3691 17.57 59.6891L21.3001 66.3591" stroke="#0751F2" stroke-width="0.7" stroke-miterlimit="10" stroke-linecap="round"/>
<path d="M10.5 70.1198C10.5 70.1198 22.35 67.3197 24.16 78.4397C24.27 79.1297 24.12 79.8498 23.7 80.3898C23.12 81.1298 22.02 81.6297 20.09 79.7097" stroke="#0751F2" stroke-width="0.7" stroke-miterlimit="10" stroke-linecap="round"/>
<path d="M7.19995 74.7494C7.19995 74.7494 18.71 72.3194 20.47 81.9894C20.58 82.5894 20.44 83.2093 20.02 83.6893C19.45 84.3393 18.38 84.7594 16.52 83.0994" stroke="#0751F2" stroke-width="0.7" stroke-miterlimit="10" stroke-linecap="round"/>
<path d="M13.8499 79.0996C13.8499 79.0996 10.4999 82.1397 12.8199 88.6597" stroke="#0751F2" stroke-width="0.7" stroke-miterlimit="10" stroke-linecap="round"/>
<path d="M129.36 179.429L44.79 145.059C42.43 144.099 40.74 141.979 40.35 139.459L33.39 91.9492L10.5 103.069L9.22998 152.259C9.22998 163.879 12.42 175.279 23.24 179.499L38.65 185.519C42.89 187.179 45.5101 191.449 45.0601 195.979L37.4 320.499H136.32V189.799C136.32 185.249 133.56 181.149 129.34 179.429H129.36Z" fill="#FFBB33"/>
<path d="M78.25 168.289C78.25 168.289 80.29 174.259 85.22 176.159C85.22 176.159 90.69 180.529 99.79 174.049L77.3199 254.149L62.23 252.869L78.26 168.289H78.25Z" fill="white"/>
<path d="M128.64 189.849L130.55 180.229C138.36 183.609 144.11 190.48 146.07 198.77L158.04 249.43C161.56 264.35 150.25 278.65 134.92 278.65H60.47C60.47 278.65 50.73 264.09 60.47 257.06L116.44 250.49L128.63 189.859L128.64 189.849Z" fill="white"/>
<path d="M130.56 180.229C138.37 183.609 144.12 190.48 146.08 198.77L158.05 249.43C161.57 264.35 150.26 278.65 134.93 278.65H62.31C61.13 278.65 60.0499 278.009 59.4899 276.979C57.2899 272.949 52.7499 262.639 60.4799 257.069L96.4699 253.329" fill="#FFBB33"/>
<path d="M107.42 146.749L106.25 170.039L97.28 176.079C89.93 181.029 79.91 176.869 78.22 168.169L76.22 157.839L77.1899 142.839L107.42 146.749Z" fill="#FFD88A"/>
<path d="M77 109.249C73.65 113.059 71.53 117.779 70.72 122.789C68.64 135.659 66.4101 163.889 86.7901 164.619C104.4 165.249 109.67 144.539 111.22 130.669C112.35 120.529 107.72 110.509 99 105.199C92.72 101.379 84.84 100.339 77 109.259V109.249Z" fill="#FFD88A"/>
<path d="M105.74 136.489C106.21 139.129 108.74 140.889 111.38 140.419C114.02 139.949 115.78 137.419 115.31 134.779C114.84 132.139 112.31 130.379 109.67 130.849C107.03 131.319 105.27 133.849 105.74 136.489Z" fill="#FFD88A"/>
<path d="M109.59 140.4C110.17 140.51 110.77 140.52 111.39 140.41C114.03 139.94 115.79 137.41 115.32 134.77C114.85 132.13 112.32 130.37 109.68 130.84" stroke="#1B5FF3" stroke-width="0.7" stroke-miterlimit="10" stroke-linecap="round"/>
<path d="M108.94 136.699C109.54 135.259 110.02 133.679 110.98 132.419C112.07 130.989 113.61 130.579 115.02 129.559C118.73 126.869 120.37 122.569 121.66 118.349C122.53 115.519 123.07 112.499 122.51 109.589C122.15 107.719 121.19 105.799 119.44 105.049C117.26 104.119 115.5 106.059 113.72 105.619C112.35 105.279 111.64 102.829 110.78 101.879C109.35 100.289 107.78 98.8194 106.1 97.4994C103.13 95.1494 99.82 93.2394 96.28 91.8794C91.93 90.1994 87.26 89.3594 82.59 89.3894C80.25 89.3994 77.91 89.6394 75.61 90.0894C73.65 90.4794 71.99 91.1995 70.42 92.4295C68.67 93.7895 67.25 95.6094 66.6 97.7494C65.33 101.949 66.98 106.869 69.16 110.479C73.9 118.309 81.6399 119.799 90.1999 118.959C92.2199 118.759 94.54 117.939 96.55 118.359C98.01 118.669 98.73 119.899 99.17 121.219C100.32 124.619 102.22 128.179 105.85 129.389C105.4 131.419 101.96 139.479 106.01 139.829C107.74 139.979 108.38 138.009 108.92 136.719L108.94 136.699Z" fill="#1B5FF3"/>
<path d="M112.07 237.199C112.07 237.199 108.78 241.389 110.53 246.179" stroke="#0751F2" stroke-width="0.7" stroke-miterlimit="10" stroke-linecap="round"/>
<path d="M63.32 256.9L44.44 254.52L21.71 261.719C20.57 262.079 19.92 263.289 20.24 264.439C20.56 265.569 21.69 266.25 22.84 266.01L37.35 262.949C37.6 262.899 37.71 263.239 37.48 263.349L21.7701 270.27C20.6701 270.75 20.18 272.05 20.69 273.14C21.16 274.16 22.3501 274.65 23.4001 274.25L40.9101 267.609C41.0901 267.539 41.2101 267.79 41.0501 267.89L33.9001 272.39C32.2901 273.4 32.49 275.81 34.24 276.55C34.79 276.78 35.42 276.789 35.98 276.579L43.11 273.89L60.07 277.089C65.64 278.129 70.9901 274.44 72.0101 268.87C73.0501 263.15 69.11 257.71 63.34 256.92L63.32 256.9Z" fill="#FFD88A"/>
<path d="M35.63 154.109C35.63 154.109 33.7799 149.389 38.4399 145.489" stroke="#0751F2" stroke-width="0.7" stroke-miterlimit="10" stroke-linecap="round"/>
<path d="M81.64 137.609L78.93 147.619C78.86 147.859 79.06 148.089 79.31 148.079L82.4399 147.849" stroke="#0751F2" stroke-width="0.7" stroke-miterlimit="10" stroke-linecap="round"/>
<path d="M91.34 150.409C91.34 150.409 90.9 154.169 86.88 153.109" stroke="#0751F2" stroke-width="0.7" stroke-miterlimit="10" stroke-linecap="round"/>
<path d="M79.37 127.2C79.37 127.2 76.5 124.98 72.96 126.64" stroke="#0751F2" stroke-width="0.7" stroke-miterlimit="10" stroke-linecap="round"/>
<path d="M97.3 132.08C97.3 132.08 95.21 129.12 91.33 129.67" stroke="#0751F2" stroke-width="0.7" stroke-miterlimit="10" stroke-linecap="round"/>
<path d="M74.3101 132.299C74.2301 133.199 74.7801 133.979 75.5301 134.039C76.2801 134.099 76.9501 133.429 77.0301 132.529C77.1101 131.629 76.5601 130.849 75.8101 130.789C75.0601 130.719 74.3901 131.399 74.3101 132.299Z" fill="#1B5FF3"/>
<path d="M89.79 135.719C89.49 136.569 89.82 137.459 90.52 137.709C91.23 137.959 92.05 137.479 92.35 136.629C92.65 135.779 92.32 134.889 91.62 134.639C90.91 134.389 90.09 134.869 89.79 135.719Z" fill="#1B5FF3"/>
<path d="M83.2 255.319L107.42 203.089L106.68 195.689H115.38L112.49 172.579L106.25 170.039L99.1899 174.799L76.99 255.319H83.2Z" fill="#5A8EFF"/>
<path d="M62.14 253.31L78.25 168.29L76.84 161.01C76.84 161.01 74.05 158.1 73.29 156.65C72.04 156.14 70.1899 155.39 70.1899 155.39L60.86 174.85L66.17 178.38L60.0699 182.87L57.33 253.31H62.15H62.14Z" fill="#5A8EFF"/>
<path d="M55.95 193.91C55.95 185.52 49.15 178.71 40.75 178.71C32.35 178.71 25.55 185.51 25.55 193.91C25.55 199.24 28.2899 203.91 32.4399 206.63V216.33L49.0601 214.62V206.63C53.2101 203.92 55.95 199.24 55.95 193.91Z" fill="#1B5FF3"/>
<path d="M45.88 220.06L44.61 221.12H36.38L35.2 220.03C32.75 217.78 31.36 214.61 31.36 211.28V210.939H50.13C50.13 214.459 48.57 217.8 45.87 220.06H45.88Z" fill="#6797FF"/>
<path d="M50.36 210.939H31.14C31.0958 210.939 31.0601 210.975 31.0601 211.02V212.25C31.0601 212.294 31.0958 212.329 31.14 212.329H50.36C50.4042 212.329 50.4399 212.294 50.4399 212.25V211.02C50.4399 210.975 50.4042 210.939 50.36 210.939Z" fill="#1B5FF3"/>
<path d="M50.36 213.78H31.14C31.0958 213.78 31.0601 213.816 31.0601 213.86V215.09C31.0601 215.134 31.0958 215.17 31.14 215.17H50.36C50.4042 215.17 50.4399 215.134 50.4399 215.09V213.86C50.4399 213.816 50.4042 213.78 50.36 213.78Z" fill="#1B5FF3"/>
<path d="M36.15 220.9H44.6801V223.3C44.6801 223.48 44.53 223.63 44.35 223.63H36.49C36.31 223.63 36.16 223.48 36.16 223.3V220.9H36.15Z" fill="#1B5FF3"/>
<path d="M49.0601 30.3293C49.0601 20.5193 41.1101 12.5693 31.3 12.5693C21.49 12.5693 13.54 20.5193 13.54 30.3293C13.54 36.5493 16.75 42.0193 21.59 45.1893V56.5193L41.01 54.5294V45.1893C45.85 42.0193 49.0601 36.5493 49.0601 30.3293Z" fill="#FFBB33"/>
<path d="M37.29 60.8795L35.8101 62.1195H26.2L24.8199 60.8495C21.9599 58.2195 20.34 54.5095 20.34 50.6295V50.2295H42.28C42.28 54.3395 40.46 58.2495 37.3 60.8795H37.29Z" fill="#1B5FF3"/>
<path d="M42.5699 53.5488H20.03C20.0024 53.5488 19.98 53.5712 19.98 53.5988V55.1288C19.98 55.1565 20.0024 55.1788 20.03 55.1788H42.5699C42.5976 55.1788 42.62 55.1565 42.62 55.1288V53.5988C42.62 53.5712 42.5976 53.5488 42.5699 53.5488Z" fill="#002E94"/>
<path d="M25.9301 61.8691H35.89V64.8691C35.89 64.9691 35.81 65.0591 35.7 65.0591H26.12C26.02 65.0591 25.9301 64.9791 25.9301 64.8691V61.8691Z" fill="#002E94"/>
<path d="M28.02 50.3591C28.17 44.5391 27.78 38.6991 27.51 32.8891C27.44 31.3791 27.83 28.3391 26.38 27.2891C24.62 26.0191 23.48 28.8991 24.01 30.2391C24.35 31.0991 25.19 31.4391 26.05 31.5191C27.68 31.6691 29.4 31.4391 31.03 31.4291C32.57 31.4091 34.26 31.5891 35.79 31.3491C36.8 31.1891 37.3899 30.5791 37.5799 29.5891C37.7199 28.8391 37.6999 27.8491 37.0899 27.2991C36.5799 26.8291 35.6399 26.7891 35.0799 27.1991C33.8199 28.0991 34.4299 30.2791 34.4399 31.5591C34.5299 37.7891 34.48 44.0191 34.66 50.2491C34.67 50.6791 35.3399 50.6791 35.3199 50.2491C35.1999 46.0591 35.1 41.8691 35.06 37.6691C35.04 35.7291 35.0599 33.7991 35.0899 31.8591C35.0999 30.7891 34.4899 28.6591 35.3499 27.8291C35.7899 27.3991 36.5499 27.5891 36.8299 28.1091C37.0499 28.5091 37 29.0991 36.91 29.5291C36.58 31.0591 34.82 30.7291 33.63 30.7391C32.25 30.7491 30.8699 30.7591 29.4799 30.7891C28.3499 30.8091 27.15 30.9791 26.02 30.8591C25.17 30.7691 24.5599 30.3491 24.4799 29.4591C24.4299 28.9091 24.6 28.1191 25.12 27.8291C26.34 27.1491 26.6399 29.1791 26.6899 29.9391C26.8299 31.8891 26.8699 33.8491 26.9599 35.7991C27.1899 40.6391 27.4599 45.5091 27.3299 50.3591C27.3199 50.7891 27.98 50.7891 27.99 50.3591H28.02Z" fill="#1B5FF3"/>
<path d="M42.5699 50.2295H20.03C20.0024 50.2295 19.98 50.2519 19.98 50.2795V51.8095C19.98 51.8371 20.0024 51.8595 20.03 51.8595H42.5699C42.5976 51.8595 42.62 51.8371 42.62 51.8095V50.2795C42.62 50.2519 42.5976 50.2295 42.5699 50.2295Z" fill="#002E94"/>
<path d="M31.98 0.259766H29.97C29.5005 0.259766 29.12 0.640299 29.12 1.10974V9.35974C29.12 9.82918 29.5005 10.2098 29.97 10.2098H31.98C32.4494 10.2098 32.83 9.82918 32.83 9.35974V1.10974C32.83 0.640299 32.4494 0.259766 31.98 0.259766Z" fill="#FFBB33"/>
<path d="M47.3473 4.53741L45.6066 3.53241C45.2 3.29769 44.6802 3.43703 44.4455 3.84358L40.3205 10.9883C40.0857 11.3948 40.225 11.9147 40.6316 12.1494L42.3723 13.1544C42.7788 13.3891 43.2987 13.2498 43.5334 12.8433L47.6584 5.69856C47.8931 5.29201 47.7539 4.77214 47.3473 4.53741Z" fill="#FFBB33"/>
<path d="M58.438 15.9622L57.433 14.2215C57.1983 13.8149 56.6785 13.6756 56.2719 13.9104L49.1272 18.0354C48.7206 18.2701 48.5814 18.7899 48.8161 19.1965L49.8211 20.9372C50.0558 21.3437 50.5756 21.483 50.9822 21.2483L58.1269 17.1233C58.5334 16.8886 58.6728 16.3687 58.438 15.9622Z" fill="#FFBB33"/>
<path d="M62.27 31.36V29.35C62.27 28.8805 61.8895 28.5 61.42 28.5H53.17C52.7006 28.5 52.32 28.8805 52.32 29.35V31.36C52.32 31.8294 52.7006 32.21 53.17 32.21H61.42C61.8895 32.21 62.27 31.8294 62.27 31.36Z" fill="#FFBB33"/>
<path d="M57.8817 46.5127L58.887 44.7722C59.1218 44.3657 58.9826 43.8458 58.5761 43.611L51.4321 39.4848C51.0256 39.25 50.5057 39.3891 50.2709 39.7956L49.2656 41.5362C49.0308 41.9427 49.1701 42.4626 49.5766 42.6974L56.7206 46.8236C57.1271 47.0584 57.6469 46.9192 57.8817 46.5127Z" fill="#FFBB33"/>
<path d="M4.83912 45.9448L5.84382 47.6857C6.07847 48.0923 6.59831 48.2316 7.0049 47.997L14.1503 43.8732C14.5569 43.6386 14.6963 43.1188 14.4616 42.7122L13.4569 40.9713C13.2223 40.5647 12.7025 40.4253 12.2959 40.66L5.15048 44.7837C4.74389 45.0184 4.60447 45.5382 4.83912 45.9448Z" fill="#FFBB33"/>
<path d="M0.981822 30.6195L0.981472 32.6295C0.98139 33.099 1.36186 33.4796 1.8313 33.4796L10.0813 33.4811C10.5507 33.4812 10.9314 33.1007 10.9315 32.6313L10.9318 30.6212C10.9319 30.1518 10.5514 29.7712 10.0819 29.7711L1.83195 29.7697C1.3625 29.7696 0.981904 30.1501 0.981822 30.6195Z" fill="#FFBB33"/>
<path d="M5.17767 15.2019L4.17267 16.9426C3.93795 17.3492 4.07723 17.869 4.48378 18.1037L11.6285 22.2287C12.035 22.4634 12.5549 22.3242 12.7896 21.9176L13.7946 20.1769C14.0294 19.7703 13.89 19.2505 13.4835 19.0158L6.33876 14.8908C5.93221 14.6561 5.41239 14.7953 5.17767 15.2019Z" fill="#FFBB33"/>
<path d="M16.5801 4.22669L14.8392 5.23139C14.4326 5.46604 14.2932 5.98583 14.5279 6.39242L18.6516 13.5379C18.8863 13.9444 19.4061 14.0839 19.8127 13.8492L21.5536 12.8445C21.9602 12.6099 22.0996 12.09 21.865 11.6834L17.7412 4.53794C17.5066 4.13135 16.9867 3.99204 16.5801 4.22669Z" fill="#FFBB33"/>
<path d="M134.93 278.64H62.3101" stroke="#0751F2" stroke-width="0.7" stroke-miterlimit="10" stroke-linecap="round"/>
<path d="M60.48 257.05L96.47 253.31" stroke="#0751F2" stroke-width="0.7" stroke-miterlimit="10" stroke-linecap="round"/>
<path d="M44.4301 254.52L63.3101 256.9C69.0701 257.69 73.01 263.119 71.98 268.849C70.97 274.429 65.61 278.119 60.04 277.069L43.08 273.87L35.95 276.56" stroke="#0751F2" stroke-width="0.7" stroke-miterlimit="10"/>
<path d="M37.46 263.35L42.3199 262.17" stroke="#0751F2" stroke-width="0.7" stroke-miterlimit="10"/>
<path d="M41.03 267.88L43.86 267.02" stroke="#0751F2" stroke-width="0.7" stroke-miterlimit="10"/>
</svg>
