<svg width="22" height="273" viewBox="0 0 22 273" fill="none" xmlns="http://www.w3.org/2000/svg">
<path d="M10.77 9.85938V262.139" stroke="#1B5FF3" stroke-width="2" stroke-miterlimit="10"/>
<path d="M11.0101 20.6297C16.0359 20.6297 20.1101 16.5555 20.1101 11.5297C20.1101 6.50393 16.0359 2.42969 11.0101 2.42969C5.98434 2.42969 1.91016 6.50393 1.91016 11.5297C1.91016 16.5555 5.98434 20.6297 11.0101 20.6297Z" fill="#FFBB33" stroke="#1B5FF3" stroke-width="3" stroke-miterlimit="10"/>
<path d="M11.0101 150.149C16.0359 150.149 20.1101 146.075 20.1101 141.049C20.1101 136.023 16.0359 131.949 11.0101 131.949C5.98434 131.949 1.91016 136.023 1.91016 141.049C1.91016 146.075 5.98434 150.149 11.0101 150.149Z" fill="#FFBB33" stroke="#1B5FF3" stroke-width="3" stroke-miterlimit="10"/>
<path d="M11.0101 271.24C16.0359 271.24 20.1101 267.166 20.1101 262.14C20.1101 257.114 16.0359 253.04 11.0101 253.04C5.98434 253.04 1.91016 257.114 1.91016 262.14C1.91016 267.166 5.98434 271.24 11.0101 271.24Z" fill="#FFBB33" stroke="#1B5FF3" stroke-width="3" stroke-miterlimit="10"/>
<path d="M11.0101 86.7898C16.0359 86.7898 20.1101 82.7156 20.1101 77.6898C20.1101 72.664 16.0359 68.5898 11.0101 68.5898C5.98434 68.5898 1.91016 72.664 1.91016 77.6898C1.91016 82.7156 5.98434 86.7898 11.0101 86.7898Z" fill="#5A8EFF" stroke="#1B5FF3" stroke-width="3" stroke-miterlimit="10"/>
<path d="M11.0101 213.51C16.0359 213.51 20.1101 209.435 20.1101 204.41C20.1101 199.384 16.0359 195.31 11.0101 195.31C5.98434 195.31 1.91016 199.384 1.91016 204.41C1.91016 209.435 5.98434 213.51 11.0101 213.51Z" fill="#5A8EFF" stroke="#1B5FF3" stroke-width="3" stroke-miterlimit="10"/>
</svg>
