<svg width="1877" height="6391" viewBox="0 0 1877 6391" fill="none" xmlns="http://www.w3.org/2000/svg">
<path d="M8.97998 565.05C37.75 565.05 61.07 541.73 61.07 512.96C61.07 484.19 37.75 460.87 8.97998 460.87V565.05Z" stroke="#BBCFFB" stroke-width="0.5" stroke-miterlimit="10"/>
<path d="M58.71 277.15C58.71 249.69 36.45 227.42 8.97998 227.42V277.15H58.71Z" stroke="#BBCFFB" stroke-width="0.5" stroke-miterlimit="10"/>
<path d="M74.1001 607.119H113.94L74.1001 567.279V607.119Z" stroke="#BBCFFB" stroke-width="0.5" stroke-miterlimit="10"/>
<path d="M39.63 317.3L22.72 300.38V334.21L39.63 317.3Z" stroke="#BBCFFB" stroke-width="0.5" stroke-miterlimit="10"/>
<path d="M88.03 66.1297C95.9442 66.1297 102.36 59.714 102.36 51.7997C102.36 43.8855 95.9442 37.4697 88.03 37.4697C80.1157 37.4697 73.7 43.8855 73.7 51.7997C73.7 59.714 80.1157 66.1297 88.03 66.1297Z" stroke="#BBCFFB" stroke-width="0.5" stroke-miterlimit="10"/>
<path d="M56.02 365.32C61.6 365.32 66.13 360.79 66.13 355.21C66.13 349.63 61.6 345.1 56.02 345.1V365.32Z" stroke="#BBCFFB" stroke-width="0.5" stroke-miterlimit="10"/>
<path d="M82.98 133.949C88.56 133.949 93.09 129.419 93.09 123.839C93.09 118.259 88.56 113.729 82.98 113.729V133.949Z" stroke="#BBCFFB" stroke-width="0.5" stroke-miterlimit="10"/>
<path d="M103.82 6.91016C103.82 12.4902 108.35 17.0201 113.93 17.0201C119.51 17.0201 124.04 12.4902 124.04 6.91016H103.82Z" stroke="#BBCFFB" stroke-width="0.5" stroke-miterlimit="10"/>
<path d="M31.1799 621.909C36.7599 621.909 41.2899 617.379 41.2899 611.799C41.2899 606.219 36.7599 601.689 31.1799 601.689V621.909Z" stroke="#BBCFFB" stroke-width="0.5" stroke-miterlimit="10"/>
<path d="M95.3599 478.219C102.777 478.219 108.79 472.207 108.79 464.789C108.79 457.372 102.777 451.359 95.3599 451.359C87.9427 451.359 81.9299 457.372 81.9299 464.789C81.9299 472.207 87.9427 478.219 95.3599 478.219Z" stroke="#BBCFFB" stroke-width="0.5" stroke-miterlimit="10"/>
<path d="M35.03 192.62C41.9446 192.62 47.55 187.015 47.55 180.1C47.55 173.185 41.9446 167.58 35.03 167.58C28.1154 167.58 22.51 173.185 22.51 180.1C22.51 187.015 28.1154 192.62 35.03 192.62Z" stroke="#BBCFFB" stroke-width="0.5" stroke-miterlimit="10"/>
<path d="M24.7601 430.05H57.8201L57.8201 396.99H24.7601L24.7601 430.05Z" stroke="#BBCFFB" stroke-width="0.5" stroke-miterlimit="10"/>
<path d="M71.5101 225.68H104.57V192.62H71.5101V225.68Z" stroke="#BBCFFB" stroke-width="0.5" stroke-miterlimit="10"/>
<path d="M54.4499 652.229H75.6099V631.07H54.4499V652.229Z" stroke="#BBCFFB" stroke-width="0.5" stroke-miterlimit="10"/>
<path d="M23.1899 138.95L54.1599 107.98L23.1899 77.0098V138.95Z" stroke="#BBCFFB" stroke-width="0.5" stroke-miterlimit="10"/>
<path d="M8.97998 59.8097C41.77 59.8097 68.36 33.2297 68.36 0.429688H8.97998V59.8097Z" stroke="#BBCFFB" stroke-width="0.5" stroke-miterlimit="10"/>
<path d="M58.71 975.84C58.71 948.38 36.45 926.11 8.97998 926.11V975.84H58.71Z" stroke="#BBCFFB" stroke-width="0.5" stroke-miterlimit="10"/>
<path d="M39.63 1015.98L22.72 999.07V1032.9L39.63 1015.98Z" stroke="#BBCFFB" stroke-width="0.5" stroke-miterlimit="10"/>
<path d="M88.03 764.82C95.9442 764.82 102.36 758.404 102.36 750.49C102.36 742.576 95.9442 736.16 88.03 736.16C80.1157 736.16 73.7 742.576 73.7 750.49C73.7 758.404 80.1157 764.82 88.03 764.82Z" stroke="#BBCFFB" stroke-width="0.5" stroke-miterlimit="10"/>
<path d="M56.02 1064.01C61.6 1064.01 66.13 1059.48 66.13 1053.9C66.13 1048.32 61.6 1043.79 56.02 1043.79V1064.01Z" stroke="#BBCFFB" stroke-width="0.5" stroke-miterlimit="10"/>
<path d="M82.98 832.64C88.56 832.64 93.09 828.11 93.09 822.53C93.09 816.95 88.56 812.42 82.98 812.42V832.64Z" stroke="#BBCFFB" stroke-width="0.5" stroke-miterlimit="10"/>
<path d="M103.82 705.6C103.82 711.18 108.35 715.71 113.93 715.71C119.51 715.71 124.04 711.18 124.04 705.6H103.82Z" stroke="#BBCFFB" stroke-width="0.5" stroke-miterlimit="10"/>
<path d="M95.3599 1156.91C102.777 1156.91 108.79 1150.9 108.79 1143.48C108.79 1136.06 102.777 1130.05 95.3599 1130.05C87.9427 1130.05 81.9299 1136.06 81.9299 1143.48C81.9299 1150.9 87.9427 1156.91 95.3599 1156.91Z" stroke="#BBCFFB" stroke-width="0.5" stroke-miterlimit="10"/>
<path d="M35.03 891.3C41.9446 891.3 47.55 885.694 47.55 878.78C47.55 871.865 41.9446 866.26 35.03 866.26C28.1154 866.26 22.51 871.865 22.51 878.78C22.51 885.694 28.1154 891.3 35.03 891.3Z" stroke="#BBCFFB" stroke-width="0.5" stroke-miterlimit="10"/>
<path d="M24.7601 1128.74H57.8201L57.8201 1095.68H24.7601L24.7601 1128.74Z" stroke="#BBCFFB" stroke-width="0.5" stroke-miterlimit="10"/>
<path d="M71.5101 924.37H104.57V891.31H71.5101V924.37Z" stroke="#BBCFFB" stroke-width="0.5" stroke-miterlimit="10"/>
<path d="M23.1899 837.64L54.1599 806.67L23.1899 775.7V837.64Z" stroke="#BBCFFB" stroke-width="0.5" stroke-miterlimit="10"/>
<path d="M8.97998 758.5C41.77 758.5 68.36 731.92 68.36 699.12H8.97998V758.5Z" stroke="#BBCFFB" stroke-width="0.5" stroke-miterlimit="10"/>
<path d="M1876.68 565.05C1847.91 565.05 1824.59 541.73 1824.59 512.96C1824.59 484.19 1847.91 460.87 1876.68 460.87V565.05Z" stroke="#BBCFFB" stroke-width="0.5" stroke-miterlimit="10"/>
<path d="M1826.96 277.15C1826.96 249.69 1849.22 227.42 1876.69 227.42V277.15H1826.96Z" stroke="#BBCFFB" stroke-width="0.5" stroke-miterlimit="10"/>
<path d="M1811.57 607.119H1771.73L1811.57 567.279V607.119Z" stroke="#BBCFFB" stroke-width="0.5" stroke-miterlimit="10"/>
<path d="M1846.03 317.3L1862.95 300.38V334.21L1846.03 317.3Z" stroke="#BBCFFB" stroke-width="0.5" stroke-miterlimit="10"/>
<path d="M1797.63 66.1297C1805.54 66.1297 1811.96 59.714 1811.96 51.7997C1811.96 43.8855 1805.54 37.4697 1797.63 37.4697C1789.72 37.4697 1783.3 43.8855 1783.3 51.7997C1783.3 59.714 1789.72 66.1297 1797.63 66.1297Z" stroke="#BBCFFB" stroke-width="0.5" stroke-miterlimit="10"/>
<path d="M1829.65 365.32C1824.07 365.32 1819.54 360.79 1819.54 355.21C1819.54 349.63 1824.07 345.1 1829.65 345.1V365.32Z" stroke="#BBCFFB" stroke-width="0.5" stroke-miterlimit="10"/>
<path d="M1802.69 133.949C1797.11 133.949 1792.58 129.419 1792.58 123.839C1792.58 118.259 1797.11 113.729 1802.69 113.729V133.949Z" stroke="#BBCFFB" stroke-width="0.5" stroke-miterlimit="10"/>
<path d="M1781.84 6.91016C1781.84 12.4902 1777.31 17.0201 1771.73 17.0201C1766.15 17.0201 1761.62 12.4902 1761.62 6.91016H1781.84Z" stroke="#BBCFFB" stroke-width="0.5" stroke-miterlimit="10"/>
<path d="M1854.49 621.909C1848.91 621.909 1844.38 617.379 1844.38 611.799C1844.38 606.219 1848.91 601.689 1854.49 601.689V621.909Z" stroke="#BBCFFB" stroke-width="0.5" stroke-miterlimit="10"/>
<path d="M1790.3 478.219C1797.72 478.219 1803.73 472.207 1803.73 464.789C1803.73 457.372 1797.72 451.359 1790.3 451.359C1782.88 451.359 1776.87 457.372 1776.87 464.789C1776.87 472.207 1782.88 478.219 1790.3 478.219Z" stroke="#BBCFFB" stroke-width="0.5" stroke-miterlimit="10"/>
<path d="M1850.64 192.62C1857.55 192.62 1863.16 187.015 1863.16 180.1C1863.16 173.185 1857.55 167.58 1850.64 167.58C1843.73 167.58 1838.12 173.185 1838.12 180.1C1838.12 187.015 1843.73 192.62 1850.64 192.62Z" stroke="#BBCFFB" stroke-width="0.5" stroke-miterlimit="10"/>
<path d="M1860.91 396.979H1827.85V430.039H1860.91V396.979Z" stroke="#BBCFFB" stroke-width="0.5" stroke-miterlimit="10"/>
<path d="M1814.16 192.62H1781.1V225.68H1814.16V192.62Z" stroke="#BBCFFB" stroke-width="0.5" stroke-miterlimit="10"/>
<path d="M1831.21 631.069H1810.05V652.229H1831.21V631.069Z" stroke="#BBCFFB" stroke-width="0.5" stroke-miterlimit="10"/>
<path d="M1862.48 138.95L1831.51 107.98L1862.48 77.0098V138.95Z" stroke="#BBCFFB" stroke-width="0.5" stroke-miterlimit="10"/>
<path d="M1876.68 59.8097C1843.89 59.8097 1817.3 33.2297 1817.3 0.429688H1876.68V59.8097Z" stroke="#BBCFFB" stroke-width="0.5" stroke-miterlimit="10"/>
<path d="M1876.68 2268.08C1847.91 2268.08 1824.59 2244.76 1824.59 2215.99C1824.59 2187.22 1847.91 2163.9 1876.68 2163.9V2268.08Z" stroke="#BBCFFB" stroke-width="0.5" stroke-miterlimit="10"/>
<path d="M1826.96 1980.18C1826.96 1952.72 1849.22 1930.45 1876.69 1930.45V1980.18H1826.96Z" stroke="#BBCFFB" stroke-width="0.5" stroke-miterlimit="10"/>
<path d="M1811.57 2310.15H1771.73L1811.57 2270.31V2310.15Z" stroke="#BBCFFB" stroke-width="0.5" stroke-miterlimit="10"/>
<path d="M1846.03 2020.33L1862.95 2003.42V2037.25L1846.03 2020.33Z" stroke="#BBCFFB" stroke-width="0.5" stroke-miterlimit="10"/>
<path d="M1797.63 1769.17C1805.54 1769.17 1811.96 1762.75 1811.96 1754.84C1811.96 1746.93 1805.54 1740.51 1797.63 1740.51C1789.72 1740.51 1783.3 1746.93 1783.3 1754.84C1783.3 1762.75 1789.72 1769.17 1797.63 1769.17Z" stroke="#BBCFFB" stroke-width="0.5" stroke-miterlimit="10"/>
<path d="M1829.65 2068.35C1824.07 2068.35 1819.54 2063.82 1819.54 2058.24C1819.54 2052.66 1824.07 2048.13 1829.65 2048.13V2068.35Z" stroke="#BBCFFB" stroke-width="0.5" stroke-miterlimit="10"/>
<path d="M1802.69 1836.99C1797.11 1836.99 1792.58 1832.46 1792.58 1826.88C1792.58 1821.3 1797.11 1816.77 1802.69 1816.77V1836.99Z" stroke="#BBCFFB" stroke-width="0.5" stroke-miterlimit="10"/>
<path d="M1781.84 1709.94C1781.84 1715.52 1777.31 1720.05 1771.73 1720.05C1766.15 1720.05 1761.62 1715.52 1761.62 1709.94H1781.84Z" stroke="#BBCFFB" stroke-width="0.5" stroke-miterlimit="10"/>
<path d="M1854.49 2324.95C1848.91 2324.95 1844.38 2320.42 1844.38 2314.84C1844.38 2309.26 1848.91 2304.73 1854.49 2304.73V2324.95Z" stroke="#BBCFFB" stroke-width="0.5" stroke-miterlimit="10"/>
<path d="M1790.3 2181.26C1797.72 2181.26 1803.73 2175.25 1803.73 2167.83C1803.73 2160.41 1797.72 2154.4 1790.3 2154.4C1782.88 2154.4 1776.87 2160.41 1776.87 2167.83C1776.87 2175.25 1782.88 2181.26 1790.3 2181.26Z" stroke="#BBCFFB" stroke-width="0.5" stroke-miterlimit="10"/>
<path d="M1850.64 1895.65C1857.55 1895.65 1863.16 1890.04 1863.16 1883.13C1863.16 1876.21 1857.55 1870.61 1850.64 1870.61C1843.73 1870.61 1838.12 1876.21 1838.12 1883.13C1838.12 1890.04 1843.73 1895.65 1850.64 1895.65Z" stroke="#BBCFFB" stroke-width="0.5" stroke-miterlimit="10"/>
<path d="M1860.91 2100.02H1827.85V2133.08H1860.91V2100.02Z" stroke="#BBCFFB" stroke-width="0.5" stroke-miterlimit="10"/>
<path d="M1814.16 1895.66H1781.1V1928.72H1814.16V1895.66Z" stroke="#BBCFFB" stroke-width="0.5" stroke-miterlimit="10"/>
<path d="M1831.21 2334.11H1810.05V2355.27H1831.21V2334.11Z" stroke="#BBCFFB" stroke-width="0.5" stroke-miterlimit="10"/>
<path d="M1862.48 1841.99L1831.51 1811.02L1862.48 1780.05V1841.99Z" stroke="#BBCFFB" stroke-width="0.5" stroke-miterlimit="10"/>
<path d="M1876.68 1762.85C1843.89 1762.85 1817.3 1736.27 1817.3 1703.47H1876.68V1762.85Z" stroke="#BBCFFB" stroke-width="0.5" stroke-miterlimit="10"/>
<path d="M1826.96 975.84C1826.96 948.38 1849.22 926.11 1876.69 926.11V975.84H1826.96Z" stroke="#BBCFFB" stroke-width="0.5" stroke-miterlimit="10"/>
<path d="M1846.03 1015.98L1862.95 999.07V1032.9L1846.03 1015.98Z" stroke="#BBCFFB" stroke-width="0.5" stroke-miterlimit="10"/>
<path d="M1797.63 764.82C1805.54 764.82 1811.96 758.404 1811.96 750.49C1811.96 742.576 1805.54 736.16 1797.63 736.16C1789.72 736.16 1783.3 742.576 1783.3 750.49C1783.3 758.404 1789.72 764.82 1797.63 764.82Z" stroke="#BBCFFB" stroke-width="0.5" stroke-miterlimit="10"/>
<path d="M1829.65 1064.01C1824.07 1064.01 1819.54 1059.48 1819.54 1053.9C1819.54 1048.32 1824.07 1043.79 1829.65 1043.79V1064.01Z" stroke="#BBCFFB" stroke-width="0.5" stroke-miterlimit="10"/>
<path d="M1802.69 832.64C1797.11 832.64 1792.58 828.11 1792.58 822.53C1792.58 816.95 1797.11 812.42 1802.69 812.42V832.64Z" stroke="#BBCFFB" stroke-width="0.5" stroke-miterlimit="10"/>
<path d="M1781.84 705.6C1781.84 711.18 1777.31 715.71 1771.73 715.71C1766.15 715.71 1761.62 711.18 1761.62 705.6H1781.84Z" stroke="#BBCFFB" stroke-width="0.5" stroke-miterlimit="10"/>
<path d="M1790.3 1156.91C1797.72 1156.91 1803.73 1150.9 1803.73 1143.48C1803.73 1136.06 1797.72 1130.05 1790.3 1130.05C1782.88 1130.05 1776.87 1136.06 1776.87 1143.48C1776.87 1150.9 1782.88 1156.91 1790.3 1156.91Z" stroke="#BBCFFB" stroke-width="0.5" stroke-miterlimit="10"/>
<path d="M1850.64 891.3C1857.55 891.3 1863.16 885.694 1863.16 878.78C1863.16 871.865 1857.55 866.26 1850.64 866.26C1843.73 866.26 1838.12 871.865 1838.12 878.78C1838.12 885.694 1843.73 891.3 1850.64 891.3Z" stroke="#BBCFFB" stroke-width="0.5" stroke-miterlimit="10"/>
<path d="M1860.91 1095.67H1827.85V1128.73H1860.91V1095.67Z" stroke="#BBCFFB" stroke-width="0.5" stroke-miterlimit="10"/>
<path d="M1814.16 891.311H1781.1V924.371H1814.16V891.311Z" stroke="#BBCFFB" stroke-width="0.5" stroke-miterlimit="10"/>
<path d="M1862.48 837.64L1831.51 806.67L1862.48 775.7V837.64Z" stroke="#BBCFFB" stroke-width="0.5" stroke-miterlimit="10"/>
<path d="M1876.68 758.5C1843.89 758.5 1817.3 731.92 1817.3 699.12H1876.68V758.5Z" stroke="#BBCFFB" stroke-width="0.5" stroke-miterlimit="10"/>
<path d="M1826.96 1485.57C1826.96 1458.11 1849.22 1435.84 1876.69 1435.84V1485.57H1826.96Z" stroke="#BBCFFB" stroke-width="0.5" stroke-miterlimit="10"/>
<path d="M1846.03 1525.72L1862.95 1508.8V1542.63L1846.03 1525.72Z" stroke="#BBCFFB" stroke-width="0.5" stroke-miterlimit="10"/>
<path d="M1797.63 1274.56C1805.54 1274.56 1811.96 1268.14 1811.96 1260.23C1811.96 1252.32 1805.54 1245.9 1797.63 1245.9C1789.72 1245.9 1783.3 1252.32 1783.3 1260.23C1783.3 1268.14 1789.72 1274.56 1797.63 1274.56Z" stroke="#BBCFFB" stroke-width="0.5" stroke-miterlimit="10"/>
<path d="M1829.65 1573.74C1824.07 1573.74 1819.54 1569.21 1819.54 1563.63C1819.54 1558.05 1824.07 1553.52 1829.65 1553.52V1573.74Z" stroke="#BBCFFB" stroke-width="0.5" stroke-miterlimit="10"/>
<path d="M1802.69 1342.38C1797.11 1342.38 1792.58 1337.85 1792.58 1332.27C1792.58 1326.69 1797.11 1322.16 1802.69 1322.16V1342.38Z" stroke="#BBCFFB" stroke-width="0.5" stroke-miterlimit="10"/>
<path d="M1781.84 1215.33C1781.84 1220.91 1777.31 1225.44 1771.73 1225.44C1766.15 1225.44 1761.62 1220.91 1761.62 1215.33H1781.84Z" stroke="#BBCFFB" stroke-width="0.5" stroke-miterlimit="10"/>
<path d="M1790.3 1666.65C1797.72 1666.65 1803.73 1660.64 1803.73 1653.22C1803.73 1645.8 1797.72 1639.79 1790.3 1639.79C1782.88 1639.79 1776.87 1645.8 1776.87 1653.22C1776.87 1660.64 1782.88 1666.65 1790.3 1666.65Z" stroke="#BBCFFB" stroke-width="0.5" stroke-miterlimit="10"/>
<path d="M1850.64 1401.04C1857.55 1401.04 1863.16 1395.43 1863.16 1388.52C1863.16 1381.6 1857.55 1376 1850.64 1376C1843.73 1376 1838.12 1381.6 1838.12 1388.52C1838.12 1395.43 1843.73 1401.04 1850.64 1401.04Z" stroke="#BBCFFB" stroke-width="0.5" stroke-miterlimit="10"/>
<path d="M1860.91 1605.41H1827.85V1638.47H1860.91V1605.41Z" stroke="#BBCFFB" stroke-width="0.5" stroke-miterlimit="10"/>
<path d="M1814.16 1401.04H1781.1V1434.1H1814.16V1401.04Z" stroke="#BBCFFB" stroke-width="0.5" stroke-miterlimit="10"/>
<path d="M1862.48 1347.38L1831.51 1316.41L1862.48 1285.44V1347.38Z" stroke="#BBCFFB" stroke-width="0.5" stroke-miterlimit="10"/>
<path d="M1876.68 1268.24C1843.89 1268.24 1817.3 1241.66 1817.3 1208.86H1876.68V1268.24Z" stroke="#BBCFFB" stroke-width="0.5" stroke-miterlimit="10"/>
<path d="M1876.68 2949.34C1847.91 2949.34 1824.59 2926.02 1824.59 2897.25C1824.59 2868.48 1847.91 2845.16 1876.68 2845.16V2949.34Z" stroke="#BBCFFB" stroke-width="0.5" stroke-miterlimit="10"/>
<path d="M1826.96 2661.44C1826.96 2633.98 1849.22 2611.71 1876.69 2611.71V2661.44H1826.96Z" stroke="#BBCFFB" stroke-width="0.5" stroke-miterlimit="10"/>
<path d="M1811.57 2991.41H1771.73L1811.57 2951.57V2991.41Z" stroke="#BBCFFB" stroke-width="0.5" stroke-miterlimit="10"/>
<path d="M1846.03 2701.59L1862.95 2684.67V2718.5L1846.03 2701.59Z" stroke="#BBCFFB" stroke-width="0.5" stroke-miterlimit="10"/>
<path d="M1797.63 2450.42C1805.54 2450.42 1811.96 2444 1811.96 2436.09C1811.96 2428.18 1805.54 2421.76 1797.63 2421.76C1789.72 2421.76 1783.3 2428.18 1783.3 2436.09C1783.3 2444 1789.72 2450.42 1797.63 2450.42Z" stroke="#BBCFFB" stroke-width="0.5" stroke-miterlimit="10"/>
<path d="M1829.65 2749.61C1824.07 2749.61 1819.54 2745.08 1819.54 2739.5C1819.54 2733.92 1824.07 2729.39 1829.65 2729.39V2749.61Z" stroke="#BBCFFB" stroke-width="0.5" stroke-miterlimit="10"/>
<path d="M1802.69 2518.24C1797.11 2518.24 1792.58 2513.71 1792.58 2508.13C1792.58 2502.55 1797.11 2498.02 1802.69 2498.02V2518.24Z" stroke="#BBCFFB" stroke-width="0.5" stroke-miterlimit="10"/>
<path d="M1781.84 2391.2C1781.84 2396.78 1777.31 2401.31 1771.73 2401.31C1766.15 2401.31 1761.62 2396.78 1761.62 2391.2H1781.84Z" stroke="#BBCFFB" stroke-width="0.5" stroke-miterlimit="10"/>
<path d="M1854.49 3006.2C1848.91 3006.2 1844.38 3001.67 1844.38 2996.09C1844.38 2990.51 1848.91 2985.98 1854.49 2985.98V3006.2Z" stroke="#BBCFFB" stroke-width="0.5" stroke-miterlimit="10"/>
<path d="M1790.3 2862.52C1797.72 2862.52 1803.73 2856.51 1803.73 2849.09C1803.73 2841.67 1797.72 2835.66 1790.3 2835.66C1782.88 2835.66 1776.87 2841.67 1776.87 2849.09C1776.87 2856.51 1782.88 2862.52 1790.3 2862.52Z" stroke="#BBCFFB" stroke-width="0.5" stroke-miterlimit="10"/>
<path d="M1850.64 2576.91C1857.55 2576.91 1863.16 2571.3 1863.16 2564.39C1863.16 2557.48 1857.55 2551.87 1850.64 2551.87C1843.73 2551.87 1838.12 2557.48 1838.12 2564.39C1838.12 2571.3 1843.73 2576.91 1850.64 2576.91Z" stroke="#BBCFFB" stroke-width="0.5" stroke-miterlimit="10"/>
<path d="M1860.91 2781.27H1827.85V2814.33H1860.91V2781.27Z" stroke="#BBCFFB" stroke-width="0.5" stroke-miterlimit="10"/>
<path d="M1814.16 2576.91H1781.1V2609.97H1814.16V2576.91Z" stroke="#BBCFFB" stroke-width="0.5" stroke-miterlimit="10"/>
<path d="M1831.21 3015.36H1810.05V3036.52H1831.21V3015.36Z" stroke="#BBCFFB" stroke-width="0.5" stroke-miterlimit="10"/>
<path d="M1862.48 2523.24L1831.51 2492.27L1862.48 2461.31V2523.24Z" stroke="#BBCFFB" stroke-width="0.5" stroke-miterlimit="10"/>
<path d="M1876.68 2444.1C1843.89 2444.1 1817.3 2417.52 1817.3 2384.72H1876.68V2444.1Z" stroke="#BBCFFB" stroke-width="0.5" stroke-miterlimit="10"/>
<path d="M1826.96 3360.13C1826.96 3332.67 1849.22 3310.4 1876.69 3310.4V3360.13H1826.96Z" stroke="#BBCFFB" stroke-width="0.5" stroke-miterlimit="10"/>
<path d="M1846.03 3400.27L1862.95 3383.36V3417.19L1846.03 3400.27Z" stroke="#BBCFFB" stroke-width="0.5" stroke-miterlimit="10"/>
<path d="M1797.63 3149.11C1805.54 3149.11 1811.96 3142.69 1811.96 3134.78C1811.96 3126.87 1805.54 3120.45 1797.63 3120.45C1789.72 3120.45 1783.3 3126.87 1783.3 3134.78C1783.3 3142.69 1789.72 3149.11 1797.63 3149.11Z" stroke="#BBCFFB" stroke-width="0.5" stroke-miterlimit="10"/>
<path d="M1829.65 3448.3C1824.07 3448.3 1819.54 3443.77 1819.54 3438.19C1819.54 3432.61 1824.07 3428.08 1829.65 3428.08V3448.3Z" stroke="#BBCFFB" stroke-width="0.5" stroke-miterlimit="10"/>
<path d="M1802.69 3216.93C1797.11 3216.93 1792.58 3212.4 1792.58 3206.82C1792.58 3201.24 1797.11 3196.71 1802.69 3196.71V3216.93Z" stroke="#BBCFFB" stroke-width="0.5" stroke-miterlimit="10"/>
<path d="M1781.84 3089.89C1781.84 3095.47 1777.31 3100 1771.73 3100C1766.15 3100 1761.62 3095.47 1761.62 3089.89H1781.84Z" stroke="#BBCFFB" stroke-width="0.5" stroke-miterlimit="10"/>
<path d="M1790.3 3541.2C1797.72 3541.2 1803.73 3535.19 1803.73 3527.77C1803.73 3520.35 1797.72 3514.34 1790.3 3514.34C1782.88 3514.34 1776.87 3520.35 1776.87 3527.77C1776.87 3535.19 1782.88 3541.2 1790.3 3541.2Z" stroke="#BBCFFB" stroke-width="0.5" stroke-miterlimit="10"/>
<path d="M1850.64 3275.6C1857.55 3275.6 1863.16 3270 1863.16 3263.08C1863.16 3256.17 1857.55 3250.56 1850.64 3250.56C1843.73 3250.56 1838.12 3256.17 1838.12 3263.08C1838.12 3270 1843.73 3275.6 1850.64 3275.6Z" stroke="#BBCFFB" stroke-width="0.5" stroke-miterlimit="10"/>
<path d="M1860.91 3479.96H1827.85V3513.02H1860.91V3479.96Z" stroke="#BBCFFB" stroke-width="0.5" stroke-miterlimit="10"/>
<path d="M1814.16 3275.6H1781.1V3308.66H1814.16V3275.6Z" stroke="#BBCFFB" stroke-width="0.5" stroke-miterlimit="10"/>
<path d="M1862.48 3221.93L1831.51 3190.96L1862.48 3159.99V3221.93Z" stroke="#BBCFFB" stroke-width="0.5" stroke-miterlimit="10"/>
<path d="M1876.68 3142.79C1843.89 3142.79 1817.3 3116.21 1817.3 3083.41H1876.68V3142.79Z" stroke="#BBCFFB" stroke-width="0.5" stroke-miterlimit="10"/>
<path d="M1826.96 3869.86C1826.96 3842.4 1849.22 3820.13 1876.69 3820.13V3869.86H1826.96Z" stroke="#BBCFFB" stroke-width="0.5" stroke-miterlimit="10"/>
<path d="M1846.03 3910.01L1862.95 3893.09V3926.93L1846.03 3910.01Z" stroke="#BBCFFB" stroke-width="0.5" stroke-miterlimit="10"/>
<path d="M1797.63 3658.85C1805.54 3658.85 1811.96 3652.43 1811.96 3644.52C1811.96 3636.61 1805.54 3630.19 1797.63 3630.19C1789.72 3630.19 1783.3 3636.61 1783.3 3644.52C1783.3 3652.43 1789.72 3658.85 1797.63 3658.85Z" stroke="#BBCFFB" stroke-width="0.5" stroke-miterlimit="10"/>
<path d="M1829.65 3958.03C1824.07 3958.03 1819.54 3953.5 1819.54 3947.92C1819.54 3942.34 1824.07 3937.81 1829.65 3937.81V3958.03Z" stroke="#BBCFFB" stroke-width="0.5" stroke-miterlimit="10"/>
<path d="M1802.69 3726.67C1797.11 3726.67 1792.58 3722.14 1792.58 3716.56C1792.58 3710.98 1797.11 3706.45 1802.69 3706.45V3726.67Z" stroke="#BBCFFB" stroke-width="0.5" stroke-miterlimit="10"/>
<path d="M1781.84 3599.62C1781.84 3605.2 1777.31 3609.73 1771.73 3609.73C1766.15 3609.73 1761.62 3605.2 1761.62 3599.62H1781.84Z" stroke="#BBCFFB" stroke-width="0.5" stroke-miterlimit="10"/>
<path d="M1790.3 4050.94C1797.72 4050.94 1803.73 4044.93 1803.73 4037.51C1803.73 4030.09 1797.72 4024.08 1790.3 4024.08C1782.88 4024.08 1776.87 4030.09 1776.87 4037.51C1776.87 4044.93 1782.88 4050.94 1790.3 4050.94Z" stroke="#BBCFFB" stroke-width="0.5" stroke-miterlimit="10"/>
<path d="M1850.64 3785.33C1857.55 3785.33 1863.16 3779.72 1863.16 3772.81C1863.16 3765.89 1857.55 3760.29 1850.64 3760.29C1843.73 3760.29 1838.12 3765.89 1838.12 3772.81C1838.12 3779.72 1843.73 3785.33 1850.64 3785.33Z" stroke="#BBCFFB" stroke-width="0.5" stroke-miterlimit="10"/>
<path d="M1860.91 3989.7H1827.85V4022.76H1860.91V3989.7Z" stroke="#BBCFFB" stroke-width="0.5" stroke-miterlimit="10"/>
<path d="M1814.16 3785.33H1781.1V3818.39H1814.16V3785.33Z" stroke="#BBCFFB" stroke-width="0.5" stroke-miterlimit="10"/>
<path d="M1862.48 3731.67L1831.51 3700.7L1862.48 3669.73V3731.67Z" stroke="#BBCFFB" stroke-width="0.5" stroke-miterlimit="10"/>
<path d="M1876.68 3652.53C1843.89 3652.53 1817.3 3625.95 1817.3 3593.15H1876.68V3652.53Z" stroke="#BBCFFB" stroke-width="0.5" stroke-miterlimit="10"/>
<path d="M0.919922 2268.08C29.6899 2268.08 53.0099 2244.76 53.0099 2215.99C53.0099 2187.22 29.6899 2163.9 0.919922 2163.9V2268.08Z" stroke="#BBCFFB" stroke-width="0.5" stroke-miterlimit="10"/>
<path d="M50.6499 1980.18C50.6499 1952.72 28.3899 1930.45 0.919922 1930.45V1980.18H50.6499Z" stroke="#BBCFFB" stroke-width="0.5" stroke-miterlimit="10"/>
<path d="M66.03 2310.15H105.87L66.03 2270.31V2310.15Z" stroke="#BBCFFB" stroke-width="0.5" stroke-miterlimit="10"/>
<path d="M31.5699 2020.33L14.6599 2003.42V2037.25L31.5699 2020.33Z" stroke="#BBCFFB" stroke-width="0.5" stroke-miterlimit="10"/>
<path d="M79.9699 1769.17C87.8841 1769.17 94.2999 1762.75 94.2999 1754.84C94.2999 1746.93 87.8841 1740.51 79.9699 1740.51C72.0557 1740.51 65.6399 1746.93 65.6399 1754.84C65.6399 1762.75 72.0557 1769.17 79.9699 1769.17Z" stroke="#BBCFFB" stroke-width="0.5" stroke-miterlimit="10"/>
<path d="M47.96 2068.35C53.54 2068.35 58.07 2063.82 58.07 2058.24C58.07 2052.66 53.54 2048.13 47.96 2048.13V2068.35Z" stroke="#BBCFFB" stroke-width="0.5" stroke-miterlimit="10"/>
<path d="M74.9199 1836.99C80.4999 1836.99 85.0299 1832.46 85.0299 1826.88C85.0299 1821.3 80.4999 1816.77 74.9199 1816.77V1836.99Z" stroke="#BBCFFB" stroke-width="0.5" stroke-miterlimit="10"/>
<path d="M95.76 1709.94C95.76 1715.52 100.29 1720.05 105.87 1720.05C111.45 1720.05 115.98 1715.52 115.98 1709.94H95.76Z" stroke="#BBCFFB" stroke-width="0.5" stroke-miterlimit="10"/>
<path d="M23.1099 2324.95C28.6899 2324.95 33.2199 2320.42 33.2199 2314.84C33.2199 2309.26 28.6899 2304.73 23.1099 2304.73V2324.95Z" stroke="#BBCFFB" stroke-width="0.5" stroke-miterlimit="10"/>
<path d="M87.2999 2181.26C94.7171 2181.26 100.73 2175.25 100.73 2167.83C100.73 2160.41 94.7171 2154.4 87.2999 2154.4C79.8827 2154.4 73.8699 2160.41 73.8699 2167.83C73.8699 2175.25 79.8827 2181.26 87.2999 2181.26Z" stroke="#BBCFFB" stroke-width="0.5" stroke-miterlimit="10"/>
<path d="M26.97 1895.65C33.8846 1895.65 39.49 1890.04 39.49 1883.13C39.49 1876.21 33.8846 1870.61 26.97 1870.61C20.0553 1870.61 14.45 1876.21 14.45 1883.13C14.45 1890.04 20.0553 1895.65 26.97 1895.65Z" stroke="#BBCFFB" stroke-width="0.5" stroke-miterlimit="10"/>
<path d="M16.7 2133.08H49.76L49.76 2100.02H16.7L16.7 2133.08Z" stroke="#BBCFFB" stroke-width="0.5" stroke-miterlimit="10"/>
<path d="M63.44 1928.71H96.5V1895.65H63.44L63.44 1928.71Z" stroke="#BBCFFB" stroke-width="0.5" stroke-miterlimit="10"/>
<path d="M46.3998 2355.26H67.5598V2334.1H46.3998V2355.26Z" stroke="#BBCFFB" stroke-width="0.5" stroke-miterlimit="10"/>
<path d="M15.1299 1841.99L46.0999 1811.02L15.1299 1780.05V1841.99Z" stroke="#BBCFFB" stroke-width="0.5" stroke-miterlimit="10"/>
<path d="M0.919922 1762.85C33.7099 1762.85 60.2999 1736.27 60.2999 1703.47H0.919922V1762.85Z" stroke="#BBCFFB" stroke-width="0.5" stroke-miterlimit="10"/>
<path d="M50.6499 1485.57C50.6499 1458.11 28.3899 1435.84 0.919922 1435.84V1485.57H50.6499Z" stroke="#BBCFFB" stroke-width="0.5" stroke-miterlimit="10"/>
<path d="M31.5699 1525.72L14.6599 1508.8V1542.63L31.5699 1525.72Z" stroke="#BBCFFB" stroke-width="0.5" stroke-miterlimit="10"/>
<path d="M79.9699 1274.56C87.8841 1274.56 94.2999 1268.14 94.2999 1260.23C94.2999 1252.32 87.8841 1245.9 79.9699 1245.9C72.0557 1245.9 65.6399 1252.32 65.6399 1260.23C65.6399 1268.14 72.0557 1274.56 79.9699 1274.56Z" stroke="#BBCFFB" stroke-width="0.5" stroke-miterlimit="10"/>
<path d="M47.96 1573.74C53.54 1573.74 58.07 1569.21 58.07 1563.63C58.07 1558.05 53.54 1553.52 47.96 1553.52V1573.74Z" stroke="#BBCFFB" stroke-width="0.5" stroke-miterlimit="10"/>
<path d="M74.9199 1342.38C80.4999 1342.38 85.0299 1337.85 85.0299 1332.27C85.0299 1326.69 80.4999 1322.16 74.9199 1322.16V1342.38Z" stroke="#BBCFFB" stroke-width="0.5" stroke-miterlimit="10"/>
<path d="M95.76 1215.33C95.76 1220.91 100.29 1225.44 105.87 1225.44C111.45 1225.44 115.98 1220.91 115.98 1215.33H95.76Z" stroke="#BBCFFB" stroke-width="0.5" stroke-miterlimit="10"/>
<path d="M87.2999 1666.65C94.7171 1666.65 100.73 1660.64 100.73 1653.22C100.73 1645.8 94.7171 1639.79 87.2999 1639.79C79.8827 1639.79 73.8699 1645.8 73.8699 1653.22C73.8699 1660.64 79.8827 1666.65 87.2999 1666.65Z" stroke="#BBCFFB" stroke-width="0.5" stroke-miterlimit="10"/>
<path d="M26.97 1401.04C33.8846 1401.04 39.49 1395.43 39.49 1388.52C39.49 1381.6 33.8846 1376 26.97 1376C20.0553 1376 14.45 1381.6 14.45 1388.52C14.45 1395.43 20.0553 1401.04 26.97 1401.04Z" stroke="#BBCFFB" stroke-width="0.5" stroke-miterlimit="10"/>
<path d="M16.7 1638.47H49.76L49.76 1605.41H16.7L16.7 1638.47Z" stroke="#BBCFFB" stroke-width="0.5" stroke-miterlimit="10"/>
<path d="M63.44 1434.11H96.5V1401.05H63.44L63.44 1434.11Z" stroke="#BBCFFB" stroke-width="0.5" stroke-miterlimit="10"/>
<path d="M15.1299 1347.38L46.0999 1316.41L15.1299 1285.44V1347.38Z" stroke="#BBCFFB" stroke-width="0.5" stroke-miterlimit="10"/>
<path d="M0.919922 1268.24C33.7099 1268.24 60.2999 1241.66 60.2999 1208.86H0.919922V1268.24Z" stroke="#BBCFFB" stroke-width="0.5" stroke-miterlimit="10"/>
<path d="M0.919922 2949.34C29.6899 2949.34 53.0099 2926.02 53.0099 2897.25C53.0099 2868.48 29.6899 2845.16 0.919922 2845.16V2949.34Z" stroke="#BBCFFB" stroke-width="0.5" stroke-miterlimit="10"/>
<path d="M50.6499 2661.44C50.6499 2633.98 28.3899 2611.71 0.919922 2611.71V2661.44H50.6499Z" stroke="#BBCFFB" stroke-width="0.5" stroke-miterlimit="10"/>
<path d="M66.03 2991.41H105.87L66.03 2951.57V2991.41Z" stroke="#BBCFFB" stroke-width="0.5" stroke-miterlimit="10"/>
<path d="M31.5699 2701.59L14.6599 2684.67V2718.5L31.5699 2701.59Z" stroke="#BBCFFB" stroke-width="0.5" stroke-miterlimit="10"/>
<path d="M79.9699 2450.42C87.8841 2450.42 94.2999 2444 94.2999 2436.09C94.2999 2428.18 87.8841 2421.76 79.9699 2421.76C72.0557 2421.76 65.6399 2428.18 65.6399 2436.09C65.6399 2444 72.0557 2450.42 79.9699 2450.42Z" stroke="#BBCFFB" stroke-width="0.5" stroke-miterlimit="10"/>
<path d="M47.96 2749.61C53.54 2749.61 58.07 2745.08 58.07 2739.5C58.07 2733.92 53.54 2729.39 47.96 2729.39V2749.61Z" stroke="#BBCFFB" stroke-width="0.5" stroke-miterlimit="10"/>
<path d="M74.9199 2518.24C80.4999 2518.24 85.0299 2513.71 85.0299 2508.13C85.0299 2502.55 80.4999 2498.02 74.9199 2498.02V2518.24Z" stroke="#BBCFFB" stroke-width="0.5" stroke-miterlimit="10"/>
<path d="M95.76 2391.2C95.76 2396.78 100.29 2401.31 105.87 2401.31C111.45 2401.31 115.98 2396.78 115.98 2391.2H95.76Z" stroke="#BBCFFB" stroke-width="0.5" stroke-miterlimit="10"/>
<path d="M23.1099 3006.2C28.6899 3006.2 33.2199 3001.67 33.2199 2996.09C33.2199 2990.51 28.6899 2985.98 23.1099 2985.98V3006.2Z" stroke="#BBCFFB" stroke-width="0.5" stroke-miterlimit="10"/>
<path d="M87.2999 2862.52C94.7171 2862.52 100.73 2856.51 100.73 2849.09C100.73 2841.67 94.7171 2835.66 87.2999 2835.66C79.8827 2835.66 73.8699 2841.67 73.8699 2849.09C73.8699 2856.51 79.8827 2862.52 87.2999 2862.52Z" stroke="#BBCFFB" stroke-width="0.5" stroke-miterlimit="10"/>
<path d="M26.97 2576.91C33.8846 2576.91 39.49 2571.3 39.49 2564.39C39.49 2557.48 33.8846 2551.87 26.97 2551.87C20.0553 2551.87 14.45 2557.48 14.45 2564.39C14.45 2571.3 20.0553 2576.91 26.97 2576.91Z" stroke="#BBCFFB" stroke-width="0.5" stroke-miterlimit="10"/>
<path d="M16.7 2814.34H49.76L49.76 2781.28H16.7L16.7 2814.34Z" stroke="#BBCFFB" stroke-width="0.5" stroke-miterlimit="10"/>
<path d="M63.44 2609.97H96.5V2576.91H63.44L63.44 2609.97Z" stroke="#BBCFFB" stroke-width="0.5" stroke-miterlimit="10"/>
<path d="M46.3998 3036.52H67.5598V3015.36H46.3998V3036.52Z" stroke="#BBCFFB" stroke-width="0.5" stroke-miterlimit="10"/>
<path d="M15.1299 2523.24L46.0999 2492.27L15.1299 2461.31V2523.24Z" stroke="#BBCFFB" stroke-width="0.5" stroke-miterlimit="10"/>
<path d="M0.919922 2444.1C33.7099 2444.1 60.2999 2417.52 60.2999 2384.72H0.919922V2444.1Z" stroke="#BBCFFB" stroke-width="0.5" stroke-miterlimit="10"/>
<path d="M50.6499 3360.13C50.6499 3332.67 28.3899 3310.4 0.919922 3310.4V3360.13H50.6499Z" stroke="#BBCFFB" stroke-width="0.5" stroke-miterlimit="10"/>
<path d="M31.5699 3400.27L14.6599 3383.36V3417.19L31.5699 3400.27Z" stroke="#BBCFFB" stroke-width="0.5" stroke-miterlimit="10"/>
<path d="M79.9699 3149.11C87.8841 3149.11 94.2999 3142.69 94.2999 3134.78C94.2999 3126.87 87.8841 3120.45 79.9699 3120.45C72.0557 3120.45 65.6399 3126.87 65.6399 3134.78C65.6399 3142.69 72.0557 3149.11 79.9699 3149.11Z" stroke="#BBCFFB" stroke-width="0.5" stroke-miterlimit="10"/>
<path d="M47.96 3448.3C53.54 3448.3 58.07 3443.77 58.07 3438.19C58.07 3432.61 53.54 3428.08 47.96 3428.08V3448.3Z" stroke="#BBCFFB" stroke-width="0.5" stroke-miterlimit="10"/>
<path d="M74.9199 3216.93C80.4999 3216.93 85.0299 3212.4 85.0299 3206.82C85.0299 3201.24 80.4999 3196.71 74.9199 3196.71V3216.93Z" stroke="#BBCFFB" stroke-width="0.5" stroke-miterlimit="10"/>
<path d="M95.76 3089.89C95.76 3095.47 100.29 3100 105.87 3100C111.45 3100 115.98 3095.47 115.98 3089.89H95.76Z" stroke="#BBCFFB" stroke-width="0.5" stroke-miterlimit="10"/>
<path d="M87.2999 3541.2C94.7171 3541.2 100.73 3535.19 100.73 3527.77C100.73 3520.35 94.7171 3514.34 87.2999 3514.34C79.8827 3514.34 73.8699 3520.35 73.8699 3527.77C73.8699 3535.19 79.8827 3541.2 87.2999 3541.2Z" stroke="#BBCFFB" stroke-width="0.5" stroke-miterlimit="10"/>
<path d="M26.97 3275.6C33.8846 3275.6 39.49 3270 39.49 3263.08C39.49 3256.17 33.8846 3250.56 26.97 3250.56C20.0553 3250.56 14.45 3256.17 14.45 3263.08C14.45 3270 20.0553 3275.6 26.97 3275.6Z" stroke="#BBCFFB" stroke-width="0.5" stroke-miterlimit="10"/>
<path d="M16.7 3513.03H49.76L49.76 3479.97H16.7L16.7 3513.03Z" stroke="#BBCFFB" stroke-width="0.5" stroke-miterlimit="10"/>
<path d="M63.44 3308.66H96.5V3275.6H63.44L63.44 3308.66Z" stroke="#BBCFFB" stroke-width="0.5" stroke-miterlimit="10"/>
<path d="M15.1299 3221.93L46.0999 3190.96L15.1299 3159.99V3221.93Z" stroke="#BBCFFB" stroke-width="0.5" stroke-miterlimit="10"/>
<path d="M0.919922 3142.79C33.7099 3142.79 60.2999 3116.21 60.2999 3083.41H0.919922V3142.79Z" stroke="#BBCFFB" stroke-width="0.5" stroke-miterlimit="10"/>
<path d="M50.6499 3869.86C50.6499 3842.4 28.3899 3820.13 0.919922 3820.13V3869.86H50.6499Z" stroke="#BBCFFB" stroke-width="0.5" stroke-miterlimit="10"/>
<path d="M31.5699 3910.01L14.6599 3893.09V3926.93L31.5699 3910.01Z" stroke="#BBCFFB" stroke-width="0.5" stroke-miterlimit="10"/>
<path d="M79.9699 3658.85C87.8841 3658.85 94.2999 3652.43 94.2999 3644.52C94.2999 3636.61 87.8841 3630.19 79.9699 3630.19C72.0557 3630.19 65.6399 3636.61 65.6399 3644.52C65.6399 3652.43 72.0557 3658.85 79.9699 3658.85Z" stroke="#BBCFFB" stroke-width="0.5" stroke-miterlimit="10"/>
<path d="M47.96 3958.03C53.54 3958.03 58.07 3953.5 58.07 3947.92C58.07 3942.34 53.54 3937.81 47.96 3937.81V3958.03Z" stroke="#BBCFFB" stroke-width="0.5" stroke-miterlimit="10"/>
<path d="M74.9199 3726.67C80.4999 3726.67 85.0299 3722.14 85.0299 3716.56C85.0299 3710.98 80.4999 3706.45 74.9199 3706.45V3726.67Z" stroke="#BBCFFB" stroke-width="0.5" stroke-miterlimit="10"/>
<path d="M95.76 3599.62C95.76 3605.2 100.29 3609.73 105.87 3609.73C111.45 3609.73 115.98 3605.2 115.98 3599.62H95.76Z" stroke="#BBCFFB" stroke-width="0.5" stroke-miterlimit="10"/>
<path d="M87.2999 4050.94C94.7171 4050.94 100.73 4044.93 100.73 4037.51C100.73 4030.09 94.7171 4024.08 87.2999 4024.08C79.8827 4024.08 73.8699 4030.09 73.8699 4037.51C73.8699 4044.93 79.8827 4050.94 87.2999 4050.94Z" stroke="#BBCFFB" stroke-width="0.5" stroke-miterlimit="10"/>
<path d="M26.97 3785.33C33.8846 3785.33 39.49 3779.72 39.49 3772.81C39.49 3765.89 33.8846 3760.29 26.97 3760.29C20.0553 3760.29 14.45 3765.89 14.45 3772.81C14.45 3779.72 20.0553 3785.33 26.97 3785.33Z" stroke="#BBCFFB" stroke-width="0.5" stroke-miterlimit="10"/>
<path d="M16.7 4022.76H49.76L49.76 3989.7H16.7L16.7 4022.76Z" stroke="#BBCFFB" stroke-width="0.5" stroke-miterlimit="10"/>
<path d="M63.44 3818.4H96.5V3785.34H63.44L63.44 3818.4Z" stroke="#BBCFFB" stroke-width="0.5" stroke-miterlimit="10"/>
<path d="M15.1299 3731.67L46.0999 3700.7L15.1299 3669.73V3731.67Z" stroke="#BBCFFB" stroke-width="0.5" stroke-miterlimit="10"/>
<path d="M0.919922 3652.53C33.7099 3652.53 60.2999 3625.95 60.2999 3593.15H0.919922V3652.53Z" stroke="#BBCFFB" stroke-width="0.5" stroke-miterlimit="10"/>
<path d="M1876.68 4653.08C1847.91 4653.08 1824.59 4629.76 1824.59 4600.99C1824.59 4572.22 1847.91 4548.9 1876.68 4548.9V4653.08Z" stroke="#BBCFFB" stroke-width="0.5" stroke-miterlimit="10"/>
<path d="M1826.96 4365.18C1826.96 4337.72 1849.22 4315.45 1876.69 4315.45V4365.18H1826.96Z" stroke="#BBCFFB" stroke-width="0.5" stroke-miterlimit="10"/>
<path d="M1811.57 4695.14H1771.73L1811.57 4655.3V4695.14Z" stroke="#BBCFFB" stroke-width="0.5" stroke-miterlimit="10"/>
<path d="M1846.03 4405.32L1862.95 4388.41V4422.24L1846.03 4405.32Z" stroke="#BBCFFB" stroke-width="0.5" stroke-miterlimit="10"/>
<path d="M1797.63 4154.16C1805.54 4154.16 1811.96 4147.74 1811.96 4139.83C1811.96 4131.92 1805.54 4125.5 1797.63 4125.5C1789.72 4125.5 1783.3 4131.92 1783.3 4139.83C1783.3 4147.74 1789.72 4154.16 1797.63 4154.16Z" stroke="#BBCFFB" stroke-width="0.5" stroke-miterlimit="10"/>
<path d="M1829.65 4453.35C1824.07 4453.35 1819.54 4448.82 1819.54 4443.24C1819.54 4437.66 1824.07 4433.13 1829.65 4433.13V4453.35Z" stroke="#BBCFFB" stroke-width="0.5" stroke-miterlimit="10"/>
<path d="M1802.69 4221.98C1797.11 4221.98 1792.58 4217.45 1792.58 4211.87C1792.58 4206.29 1797.11 4201.76 1802.69 4201.76V4221.98Z" stroke="#BBCFFB" stroke-width="0.5" stroke-miterlimit="10"/>
<path d="M1781.84 4094.94C1781.84 4100.52 1777.31 4105.05 1771.73 4105.05C1766.15 4105.05 1761.62 4100.52 1761.62 4094.94H1781.84Z" stroke="#BBCFFB" stroke-width="0.5" stroke-miterlimit="10"/>
<path d="M1854.49 4709.94C1848.91 4709.94 1844.38 4705.41 1844.38 4699.83C1844.38 4694.25 1848.91 4689.72 1854.49 4689.72V4709.94Z" stroke="#BBCFFB" stroke-width="0.5" stroke-miterlimit="10"/>
<path d="M1790.3 4566.25C1797.72 4566.25 1803.73 4560.24 1803.73 4552.82C1803.73 4545.4 1797.72 4539.39 1790.3 4539.39C1782.88 4539.39 1776.87 4545.4 1776.87 4552.82C1776.87 4560.24 1782.88 4566.25 1790.3 4566.25Z" stroke="#BBCFFB" stroke-width="0.5" stroke-miterlimit="10"/>
<path d="M1850.64 4280.65C1857.55 4280.65 1863.16 4275.04 1863.16 4268.13C1863.16 4261.21 1857.55 4255.61 1850.64 4255.61C1843.73 4255.61 1838.12 4261.21 1838.12 4268.13C1838.12 4275.04 1843.73 4280.65 1850.64 4280.65Z" stroke="#BBCFFB" stroke-width="0.5" stroke-miterlimit="10"/>
<path d="M1860.91 4485.01H1827.85V4518.07H1860.91V4485.01Z" stroke="#BBCFFB" stroke-width="0.5" stroke-miterlimit="10"/>
<path d="M1814.16 4280.65H1781.1V4313.71H1814.16V4280.65Z" stroke="#BBCFFB" stroke-width="0.5" stroke-miterlimit="10"/>
<path d="M1831.21 4719.1H1810.05V4740.26H1831.21V4719.1Z" stroke="#BBCFFB" stroke-width="0.5" stroke-miterlimit="10"/>
<path d="M1862.48 4226.98L1831.51 4196.01L1862.48 4165.04V4226.98Z" stroke="#BBCFFB" stroke-width="0.5" stroke-miterlimit="10"/>
<path d="M1876.68 4147.84C1843.89 4147.84 1817.3 4121.26 1817.3 4088.46H1876.68V4147.84Z" stroke="#BBCFFB" stroke-width="0.5" stroke-miterlimit="10"/>
<path d="M1876.68 5334.33C1847.91 5334.33 1824.59 5311.01 1824.59 5282.24C1824.59 5253.47 1847.91 5230.15 1876.68 5230.15V5334.33Z" stroke="#BBCFFB" stroke-width="0.5" stroke-miterlimit="10"/>
<path d="M1826.96 5046.43C1826.96 5018.97 1849.22 4996.7 1876.69 4996.7V5046.43H1826.96Z" stroke="#BBCFFB" stroke-width="0.5" stroke-miterlimit="10"/>
<path d="M1811.57 5376.4H1771.73L1811.57 5336.56V5376.4Z" stroke="#BBCFFB" stroke-width="0.5" stroke-miterlimit="10"/>
<path d="M1846.03 5086.58L1862.95 5069.66V5103.5L1846.03 5086.58Z" stroke="#BBCFFB" stroke-width="0.5" stroke-miterlimit="10"/>
<path d="M1797.63 4835.42C1805.54 4835.42 1811.96 4829 1811.96 4821.09C1811.96 4813.18 1805.54 4806.76 1797.63 4806.76C1789.72 4806.76 1783.3 4813.18 1783.3 4821.09C1783.3 4829 1789.72 4835.42 1797.63 4835.42Z" stroke="#BBCFFB" stroke-width="0.5" stroke-miterlimit="10"/>
<path d="M1829.65 5134.6C1824.07 5134.6 1819.54 5130.07 1819.54 5124.49C1819.54 5118.91 1824.07 5114.38 1829.65 5114.38V5134.6Z" stroke="#BBCFFB" stroke-width="0.5" stroke-miterlimit="10"/>
<path d="M1802.69 4903.24C1797.11 4903.24 1792.58 4898.71 1792.58 4893.13C1792.58 4887.55 1797.11 4883.02 1802.69 4883.02V4903.24Z" stroke="#BBCFFB" stroke-width="0.5" stroke-miterlimit="10"/>
<path d="M1781.84 4776.19C1781.84 4781.77 1777.31 4786.3 1771.73 4786.3C1766.15 4786.3 1761.62 4781.77 1761.62 4776.19H1781.84Z" stroke="#BBCFFB" stroke-width="0.5" stroke-miterlimit="10"/>
<path d="M1854.49 5391.19C1848.91 5391.19 1844.38 5386.66 1844.38 5381.08C1844.38 5375.5 1848.91 5370.97 1854.49 5370.97V5391.19Z" stroke="#BBCFFB" stroke-width="0.5" stroke-miterlimit="10"/>
<path d="M1790.3 5247.51C1797.72 5247.51 1803.73 5241.5 1803.73 5234.08C1803.73 5226.66 1797.72 5220.65 1790.3 5220.65C1782.88 5220.65 1776.87 5226.66 1776.87 5234.08C1776.87 5241.5 1782.88 5247.51 1790.3 5247.51Z" stroke="#BBCFFB" stroke-width="0.5" stroke-miterlimit="10"/>
<path d="M1850.64 4961.9C1857.55 4961.9 1863.16 4956.29 1863.16 4949.38C1863.16 4942.46 1857.55 4936.86 1850.64 4936.86C1843.73 4936.86 1838.12 4942.46 1838.12 4949.38C1838.12 4956.29 1843.73 4961.9 1850.64 4961.9Z" stroke="#BBCFFB" stroke-width="0.5" stroke-miterlimit="10"/>
<path d="M1860.91 5166.27H1827.85V5199.33H1860.91V5166.27Z" stroke="#BBCFFB" stroke-width="0.5" stroke-miterlimit="10"/>
<path d="M1814.16 4961.9H1781.1V4994.96H1814.16V4961.9Z" stroke="#BBCFFB" stroke-width="0.5" stroke-miterlimit="10"/>
<path d="M1831.21 5400.35H1810.05V5421.51H1831.21V5400.35Z" stroke="#BBCFFB" stroke-width="0.5" stroke-miterlimit="10"/>
<path d="M1862.48 4908.24L1831.51 4877.27L1862.48 4846.3V4908.24Z" stroke="#BBCFFB" stroke-width="0.5" stroke-miterlimit="10"/>
<path d="M1876.68 4829.1C1843.89 4829.1 1817.3 4802.52 1817.3 4769.72H1876.68V4829.1Z" stroke="#BBCFFB" stroke-width="0.5" stroke-miterlimit="10"/>
<path d="M1797.63 5534.1C1805.54 5534.1 1811.96 5527.68 1811.96 5519.77C1811.96 5511.86 1805.54 5505.44 1797.63 5505.44C1789.72 5505.44 1783.3 5511.86 1783.3 5519.77C1783.3 5527.68 1789.72 5534.1 1797.63 5534.1Z" stroke="#BBCFFB" stroke-width="0.5" stroke-miterlimit="10"/>
<path d="M1802.69 5601.92C1797.11 5601.92 1792.58 5597.39 1792.58 5591.81C1792.58 5586.23 1797.11 5581.7 1802.69 5581.7V5601.92Z" stroke="#BBCFFB" stroke-width="0.5" stroke-miterlimit="10"/>
<path d="M1781.84 5474.88C1781.84 5480.46 1777.31 5484.99 1771.73 5484.99C1766.15 5484.99 1761.62 5480.46 1761.62 5474.88H1781.84Z" stroke="#BBCFFB" stroke-width="0.5" stroke-miterlimit="10"/>
<path d="M1850.64 5660.59C1857.55 5660.59 1863.16 5654.98 1863.16 5648.07C1863.16 5641.16 1857.55 5635.55 1850.64 5635.55C1843.73 5635.55 1838.12 5641.16 1838.12 5648.07C1838.12 5654.98 1843.73 5660.59 1850.64 5660.59Z" stroke="#BBCFFB" stroke-width="0.5" stroke-miterlimit="10"/>
<path d="M1814.16 5660.59H1781.1V5693.65H1814.16V5660.59Z" stroke="#BBCFFB" stroke-width="0.5" stroke-miterlimit="10"/>
<path d="M1862.48 5606.92L1831.51 5575.96L1862.48 5544.99V5606.92Z" stroke="#BBCFFB" stroke-width="0.5" stroke-miterlimit="10"/>
<path d="M1876.68 5527.79C1843.89 5527.79 1817.3 5501.21 1817.3 5468.41H1876.68V5527.79Z" stroke="#BBCFFB" stroke-width="0.5" stroke-miterlimit="10"/>
<path d="M0.919922 4653.08C29.6899 4653.08 53.0099 4629.76 53.0099 4600.99C53.0099 4572.22 29.6899 4548.9 0.919922 4548.9V4653.08Z" stroke="#BBCFFB" stroke-width="0.5" stroke-miterlimit="10"/>
<path d="M50.6499 4365.18C50.6499 4337.72 28.3899 4315.45 0.919922 4315.45V4365.18H50.6499Z" stroke="#BBCFFB" stroke-width="0.5" stroke-miterlimit="10"/>
<path d="M66.03 4695.14H105.87L66.03 4655.3V4695.14Z" stroke="#BBCFFB" stroke-width="0.5" stroke-miterlimit="10"/>
<path d="M31.5699 4405.32L14.6599 4388.41V4422.24L31.5699 4405.32Z" stroke="#BBCFFB" stroke-width="0.5" stroke-miterlimit="10"/>
<path d="M79.9699 4154.16C87.8841 4154.16 94.2999 4147.74 94.2999 4139.83C94.2999 4131.92 87.8841 4125.5 79.9699 4125.5C72.0557 4125.5 65.6399 4131.92 65.6399 4139.83C65.6399 4147.74 72.0557 4154.16 79.9699 4154.16Z" stroke="#BBCFFB" stroke-width="0.5" stroke-miterlimit="10"/>
<path d="M47.96 4453.35C53.54 4453.35 58.07 4448.82 58.07 4443.24C58.07 4437.66 53.54 4433.13 47.96 4433.13V4453.35Z" stroke="#BBCFFB" stroke-width="0.5" stroke-miterlimit="10"/>
<path d="M74.9199 4221.98C80.4999 4221.98 85.0299 4217.45 85.0299 4211.87C85.0299 4206.29 80.4999 4201.76 74.9199 4201.76V4221.98Z" stroke="#BBCFFB" stroke-width="0.5" stroke-miterlimit="10"/>
<path d="M95.76 4094.94C95.76 4100.52 100.29 4105.05 105.87 4105.05C111.45 4105.05 115.98 4100.52 115.98 4094.94H95.76Z" stroke="#BBCFFB" stroke-width="0.5" stroke-miterlimit="10"/>
<path d="M23.1099 4709.94C28.6899 4709.94 33.2199 4705.41 33.2199 4699.83C33.2199 4694.25 28.6899 4689.72 23.1099 4689.72V4709.94Z" stroke="#BBCFFB" stroke-width="0.5" stroke-miterlimit="10"/>
<path d="M87.2999 4566.25C94.7171 4566.25 100.73 4560.24 100.73 4552.82C100.73 4545.4 94.7171 4539.39 87.2999 4539.39C79.8827 4539.39 73.8699 4545.4 73.8699 4552.82C73.8699 4560.24 79.8827 4566.25 87.2999 4566.25Z" stroke="#BBCFFB" stroke-width="0.5" stroke-miterlimit="10"/>
<path d="M26.97 4280.65C33.8846 4280.65 39.49 4275.04 39.49 4268.13C39.49 4261.21 33.8846 4255.61 26.97 4255.61C20.0553 4255.61 14.45 4261.21 14.45 4268.13C14.45 4275.04 20.0553 4280.65 26.97 4280.65Z" stroke="#BBCFFB" stroke-width="0.5" stroke-miterlimit="10"/>
<path d="M16.7 4518.08H49.76L49.76 4485.02H16.7L16.7 4518.08Z" stroke="#BBCFFB" stroke-width="0.5" stroke-miterlimit="10"/>
<path d="M63.44 4313.71H96.5V4280.65H63.44L63.44 4313.71Z" stroke="#BBCFFB" stroke-width="0.5" stroke-miterlimit="10"/>
<path d="M46.3998 4740.26H67.5598V4719.1H46.3998V4740.26Z" stroke="#BBCFFB" stroke-width="0.5" stroke-miterlimit="10"/>
<path d="M15.1299 4226.98L46.0999 4196.01L15.1299 4165.04V4226.98Z" stroke="#BBCFFB" stroke-width="0.5" stroke-miterlimit="10"/>
<path d="M0.919922 4147.84C33.7099 4147.84 60.2999 4121.26 60.2999 4088.46H0.919922V4147.84Z" stroke="#BBCFFB" stroke-width="0.5" stroke-miterlimit="10"/>
<path d="M0.919922 5334.33C29.6899 5334.33 53.0099 5311.01 53.0099 5282.24C53.0099 5253.47 29.6899 5230.15 0.919922 5230.15V5334.33Z" stroke="#BBCFFB" stroke-width="0.5" stroke-miterlimit="10"/>
<path d="M50.6499 5046.43C50.6499 5018.97 28.3899 4996.7 0.919922 4996.7V5046.43H50.6499Z" stroke="#BBCFFB" stroke-width="0.5" stroke-miterlimit="10"/>
<path d="M66.03 5376.4H105.87L66.03 5336.56V5376.4Z" stroke="#BBCFFB" stroke-width="0.5" stroke-miterlimit="10"/>
<path d="M31.5699 5086.58L14.6599 5069.66V5103.5L31.5699 5086.58Z" stroke="#BBCFFB" stroke-width="0.5" stroke-miterlimit="10"/>
<path d="M79.9699 4835.42C87.8841 4835.42 94.2999 4829 94.2999 4821.09C94.2999 4813.18 87.8841 4806.76 79.9699 4806.76C72.0557 4806.76 65.6399 4813.18 65.6399 4821.09C65.6399 4829 72.0557 4835.42 79.9699 4835.42Z" stroke="#BBCFFB" stroke-width="0.5" stroke-miterlimit="10"/>
<path d="M47.96 5134.6C53.54 5134.6 58.07 5130.07 58.07 5124.49C58.07 5118.91 53.54 5114.38 47.96 5114.38V5134.6Z" stroke="#BBCFFB" stroke-width="0.5" stroke-miterlimit="10"/>
<path d="M74.9199 4903.24C80.4999 4903.24 85.0299 4898.71 85.0299 4893.13C85.0299 4887.55 80.4999 4883.02 74.9199 4883.02V4903.24Z" stroke="#BBCFFB" stroke-width="0.5" stroke-miterlimit="10"/>
<path d="M95.76 4776.19C95.76 4781.77 100.29 4786.3 105.87 4786.3C111.45 4786.3 115.98 4781.77 115.98 4776.19H95.76Z" stroke="#BBCFFB" stroke-width="0.5" stroke-miterlimit="10"/>
<path d="M23.1099 5391.19C28.6899 5391.19 33.2199 5386.66 33.2199 5381.08C33.2199 5375.5 28.6899 5370.97 23.1099 5370.97V5391.19Z" stroke="#BBCFFB" stroke-width="0.5" stroke-miterlimit="10"/>
<path d="M87.2999 5247.51C94.7171 5247.51 100.73 5241.5 100.73 5234.08C100.73 5226.66 94.7171 5220.65 87.2999 5220.65C79.8827 5220.65 73.8699 5226.66 73.8699 5234.08C73.8699 5241.5 79.8827 5247.51 87.2999 5247.51Z" stroke="#BBCFFB" stroke-width="0.5" stroke-miterlimit="10"/>
<path d="M26.97 4961.9C33.8846 4961.9 39.49 4956.29 39.49 4949.38C39.49 4942.46 33.8846 4936.86 26.97 4936.86C20.0553 4936.86 14.45 4942.46 14.45 4949.38C14.45 4956.29 20.0553 4961.9 26.97 4961.9Z" stroke="#BBCFFB" stroke-width="0.5" stroke-miterlimit="10"/>
<path d="M16.7 5199.33H49.76L49.76 5166.27H16.7L16.7 5199.33Z" stroke="#BBCFFB" stroke-width="0.5" stroke-miterlimit="10"/>
<path d="M63.44 4994.97H96.5V4961.91H63.44L63.44 4994.97Z" stroke="#BBCFFB" stroke-width="0.5" stroke-miterlimit="10"/>
<path d="M46.3998 5421.52H67.5598V5400.36H46.3998V5421.52Z" stroke="#BBCFFB" stroke-width="0.5" stroke-miterlimit="10"/>
<path d="M15.1299 4908.24L46.0999 4877.27L15.1299 4846.3V4908.24Z" stroke="#BBCFFB" stroke-width="0.5" stroke-miterlimit="10"/>
<path d="M0.919922 4829.1C33.7099 4829.1 60.2999 4802.52 60.2999 4769.72H0.919922V4829.1Z" stroke="#BBCFFB" stroke-width="0.5" stroke-miterlimit="10"/>
<path d="M79.9699 5534.1C87.8841 5534.1 94.2999 5527.68 94.2999 5519.77C94.2999 5511.86 87.8841 5505.44 79.9699 5505.44C72.0557 5505.44 65.6399 5511.86 65.6399 5519.77C65.6399 5527.68 72.0557 5534.1 79.9699 5534.1Z" stroke="#BBCFFB" stroke-width="0.5" stroke-miterlimit="10"/>
<path d="M74.9199 5601.92C80.4999 5601.92 85.0299 5597.39 85.0299 5591.81C85.0299 5586.23 80.4999 5581.7 74.9199 5581.7V5601.92Z" stroke="#BBCFFB" stroke-width="0.5" stroke-miterlimit="10"/>
<path d="M95.76 5474.88C95.76 5480.46 100.29 5484.99 105.87 5484.99C111.45 5484.99 115.98 5480.46 115.98 5474.88H95.76Z" stroke="#BBCFFB" stroke-width="0.5" stroke-miterlimit="10"/>
<path d="M26.97 5660.59C33.8846 5660.59 39.49 5654.98 39.49 5648.07C39.49 5641.16 33.8846 5635.55 26.97 5635.55C20.0553 5635.55 14.45 5641.16 14.45 5648.07C14.45 5654.98 20.0553 5660.59 26.97 5660.59Z" stroke="#BBCFFB" stroke-width="0.5" stroke-miterlimit="10"/>
<path d="M63.44 5693.65H96.5V5660.59H63.44L63.44 5693.65Z" stroke="#BBCFFB" stroke-width="0.5" stroke-miterlimit="10"/>
<path d="M15.1299 5606.92L46.0999 5575.96L15.1299 5544.99V5606.92Z" stroke="#BBCFFB" stroke-width="0.5" stroke-miterlimit="10"/>
<path d="M0.919922 5527.79C33.7099 5527.79 60.2999 5501.21 60.2999 5468.41H0.919922V5527.79Z" stroke="#BBCFFB" stroke-width="0.5" stroke-miterlimit="10"/>
<path d="M1876.68 6291.74C1847.91 6291.74 1824.59 6268.42 1824.59 6239.65C1824.59 6210.88 1847.91 6187.56 1876.68 6187.56V6291.74Z" stroke="#BBCFFB" stroke-width="0.5" stroke-miterlimit="10"/>
<path d="M1826.96 6003.84C1826.96 5976.38 1849.22 5954.11 1876.69 5954.11V6003.84H1826.96Z" stroke="#BBCFFB" stroke-width="0.5" stroke-miterlimit="10"/>
<path d="M1811.57 6333.81H1771.73L1811.57 6293.97V6333.81Z" stroke="#BBCFFB" stroke-width="0.5" stroke-miterlimit="10"/>
<path d="M1846.03 6043.99L1862.95 6027.07V6060.91L1846.03 6043.99Z" stroke="#BBCFFB" stroke-width="0.5" stroke-miterlimit="10"/>
<path d="M1797.63 5792.83C1805.54 5792.83 1811.96 5786.41 1811.96 5778.5C1811.96 5770.58 1805.54 5764.17 1797.63 5764.17C1789.72 5764.17 1783.3 5770.58 1783.3 5778.5C1783.3 5786.41 1789.72 5792.83 1797.63 5792.83Z" stroke="#BBCFFB" stroke-width="0.5" stroke-miterlimit="10"/>
<path d="M1829.65 6092.01C1824.07 6092.01 1819.54 6087.48 1819.54 6081.9C1819.54 6076.32 1824.07 6071.79 1829.65 6071.79V6092.01Z" stroke="#BBCFFB" stroke-width="0.5" stroke-miterlimit="10"/>
<path d="M1802.69 5860.65C1797.11 5860.65 1792.58 5856.12 1792.58 5850.54C1792.58 5844.96 1797.11 5840.43 1802.69 5840.43V5860.65Z" stroke="#BBCFFB" stroke-width="0.5" stroke-miterlimit="10"/>
<path d="M1781.84 5733.6C1781.84 5739.18 1777.31 5743.71 1771.73 5743.71C1766.15 5743.71 1761.62 5739.18 1761.62 5733.6H1781.84Z" stroke="#BBCFFB" stroke-width="0.5" stroke-miterlimit="10"/>
<path d="M1854.49 6348.61C1848.91 6348.61 1844.38 6344.08 1844.38 6338.5C1844.38 6332.92 1848.91 6328.39 1854.49 6328.39V6348.61Z" stroke="#BBCFFB" stroke-width="0.5" stroke-miterlimit="10"/>
<path d="M1790.3 6204.92C1797.72 6204.92 1803.73 6198.91 1803.73 6191.49C1803.73 6184.07 1797.72 6178.06 1790.3 6178.06C1782.88 6178.06 1776.87 6184.07 1776.87 6191.49C1776.87 6198.91 1782.88 6204.92 1790.3 6204.92Z" stroke="#BBCFFB" stroke-width="0.5" stroke-miterlimit="10"/>
<path d="M1850.64 5919.31C1857.55 5919.31 1863.16 5913.7 1863.16 5906.79C1863.16 5899.87 1857.55 5894.27 1850.64 5894.27C1843.73 5894.27 1838.12 5899.87 1838.12 5906.79C1838.12 5913.7 1843.73 5919.31 1850.64 5919.31Z" stroke="#BBCFFB" stroke-width="0.5" stroke-miterlimit="10"/>
<path d="M1860.91 6123.68H1827.85V6156.74H1860.91V6123.68Z" stroke="#BBCFFB" stroke-width="0.5" stroke-miterlimit="10"/>
<path d="M1814.16 5919.31H1781.1V5952.37H1814.16V5919.31Z" stroke="#BBCFFB" stroke-width="0.5" stroke-miterlimit="10"/>
<path d="M1831.21 6357.77H1810.05V6378.93H1831.21V6357.77Z" stroke="#BBCFFB" stroke-width="0.5" stroke-miterlimit="10"/>
<path d="M1862.48 5865.65L1831.51 5834.68L1862.48 5803.71V5865.65Z" stroke="#BBCFFB" stroke-width="0.5" stroke-miterlimit="10"/>
<path d="M1876.68 5786.51C1843.89 5786.51 1817.3 5759.93 1817.3 5727.13H1876.68V5786.51Z" stroke="#BBCFFB" stroke-width="0.5" stroke-miterlimit="10"/>
<path d="M0.919922 6291.74C29.6899 6291.74 53.0099 6268.42 53.0099 6239.65C53.0099 6210.88 29.6899 6187.56 0.919922 6187.56V6291.74Z" stroke="#BBCFFB" stroke-width="0.5" stroke-miterlimit="10"/>
<path d="M50.6499 6003.84C50.6499 5976.38 28.3899 5954.11 0.919922 5954.11V6003.84H50.6499Z" stroke="#BBCFFB" stroke-width="0.5" stroke-miterlimit="10"/>
<path d="M66.03 6333.81H105.87L66.03 6293.97V6333.81Z" stroke="#BBCFFB" stroke-width="0.5" stroke-miterlimit="10"/>
<path d="M31.5699 6043.99L14.6599 6027.07V6060.91L31.5699 6043.99Z" stroke="#BBCFFB" stroke-width="0.5" stroke-miterlimit="10"/>
<path d="M79.9699 5792.83C87.8841 5792.83 94.2999 5786.41 94.2999 5778.5C94.2999 5770.58 87.8841 5764.17 79.9699 5764.17C72.0557 5764.17 65.6399 5770.58 65.6399 5778.5C65.6399 5786.41 72.0557 5792.83 79.9699 5792.83Z" stroke="#BBCFFB" stroke-width="0.5" stroke-miterlimit="10"/>
<path d="M47.96 6092.01C53.54 6092.01 58.07 6087.48 58.07 6081.9C58.07 6076.32 53.54 6071.79 47.96 6071.79V6092.01Z" stroke="#BBCFFB" stroke-width="0.5" stroke-miterlimit="10"/>
<path d="M74.9199 5860.65C80.4999 5860.65 85.0299 5856.12 85.0299 5850.54C85.0299 5844.96 80.4999 5840.43 74.9199 5840.43V5860.65Z" stroke="#BBCFFB" stroke-width="0.5" stroke-miterlimit="10"/>
<path d="M95.76 5733.6C95.76 5739.18 100.29 5743.71 105.87 5743.71C111.45 5743.71 115.98 5739.18 115.98 5733.6H95.76Z" stroke="#BBCFFB" stroke-width="0.5" stroke-miterlimit="10"/>
<path d="M23.1099 6348.61C28.6899 6348.61 33.2199 6344.08 33.2199 6338.5C33.2199 6332.92 28.6899 6328.39 23.1099 6328.39V6348.61Z" stroke="#BBCFFB" stroke-width="0.5" stroke-miterlimit="10"/>
<path d="M87.2999 6204.92C94.7171 6204.92 100.73 6198.91 100.73 6191.49C100.73 6184.07 94.7171 6178.06 87.2999 6178.06C79.8827 6178.06 73.8699 6184.07 73.8699 6191.49C73.8699 6198.91 79.8827 6204.92 87.2999 6204.92Z" stroke="#BBCFFB" stroke-width="0.5" stroke-miterlimit="10"/>
<path d="M26.97 5919.31C33.8846 5919.31 39.49 5913.7 39.49 5906.79C39.49 5899.87 33.8846 5894.27 26.97 5894.27C20.0553 5894.27 14.45 5899.87 14.45 5906.79C14.45 5913.7 20.0553 5919.31 26.97 5919.31Z" stroke="#BBCFFB" stroke-width="0.5" stroke-miterlimit="10"/>
<path d="M16.7 6156.74H49.76L49.76 6123.68H16.7L16.7 6156.74Z" stroke="#BBCFFB" stroke-width="0.5" stroke-miterlimit="10"/>
<path d="M63.44 5952.38H96.5V5919.32H63.44L63.44 5952.38Z" stroke="#BBCFFB" stroke-width="0.5" stroke-miterlimit="10"/>
<path d="M46.3998 6378.92H67.5598V6357.76H46.3998V6378.92Z" stroke="#BBCFFB" stroke-width="0.5" stroke-miterlimit="10"/>
<path d="M15.1299 5865.65L46.0999 5834.68L15.1299 5803.71V5865.65Z" stroke="#BBCFFB" stroke-width="0.5" stroke-miterlimit="10"/>
<path d="M0.919922 5786.51C33.7099 5786.51 60.2999 5759.93 60.2999 5727.13H0.919922V5786.51Z" stroke="#BBCFFB" stroke-width="0.5" stroke-miterlimit="10"/>
<path d="M706.88 6325.55C706.88 6354.32 683.56 6377.64 654.79 6377.64C626.02 6377.64 602.7 6354.32 602.7 6325.55H706.88Z" stroke="#BBCFFB" stroke-width="0.5" stroke-miterlimit="10"/>
<path d="M411.72 6375.27C384.26 6375.27 361.99 6353.01 361.99 6325.54H411.72V6375.27Z" stroke="#BBCFFB" stroke-width="0.5" stroke-miterlimit="10"/>
<path d="M469.24 6360.05L452.33 6343.13H486.16L469.24 6360.05Z" stroke="#BBCFFB" stroke-width="0.5" stroke-miterlimit="10"/>
<path d="M496.27 6379.87C496.27 6385.45 491.74 6389.98 486.16 6389.98C480.58 6389.98 476.05 6385.45 476.05 6379.87H496.27Z" stroke="#BBCFFB" stroke-width="0.5" stroke-miterlimit="10"/>
<path d="M757.77 6345.36C757.77 6350.94 753.24 6355.47 747.66 6355.47C742.08 6355.47 737.55 6350.94 737.55 6345.36H757.77Z" stroke="#BBCFFB" stroke-width="0.5" stroke-miterlimit="10"/>
<path d="M881.88 6363.84C889.297 6363.84 895.31 6357.83 895.31 6350.41C895.31 6342.99 889.297 6336.98 881.88 6336.98C874.463 6336.98 868.45 6342.99 868.45 6350.41C868.45 6357.83 874.463 6363.84 881.88 6363.84Z" stroke="#BBCFFB" stroke-width="0.5" stroke-miterlimit="10"/>
<path d="M314.28 6364.11C321.194 6364.11 326.8 6358.5 326.8 6351.59C326.8 6344.67 321.194 6339.07 314.28 6339.07C307.365 6339.07 301.76 6344.67 301.76 6351.59C301.76 6358.5 307.365 6364.11 314.28 6364.11Z" stroke="#BBCFFB" stroke-width="0.5" stroke-miterlimit="10"/>
<path d="M538.82 6341.32V6374.38H571.88V6341.32H538.82Z" stroke="#BBCFFB" stroke-width="0.5" stroke-miterlimit="10"/>
<path d="M271.75 6335.06L238.69 6368.12V6335.06H271.75Z" stroke="#BBCFFB" stroke-width="0.5" stroke-miterlimit="10"/>
<path d="M790.76 6338.37V6364.82H817.21V6338.37H790.76Z" stroke="#BBCFFB" stroke-width="0.5" stroke-miterlimit="10"/>
<path d="M166.21 6332.15V6358.6H192.66V6332.15H166.21Z" stroke="#BBCFFB" stroke-width="0.5" stroke-miterlimit="10"/>
<path d="M1538.12 6325.55C1538.12 6354.32 1561.44 6377.64 1590.21 6377.64C1618.98 6377.64 1642.3 6354.32 1642.3 6325.55H1538.12Z" stroke="#BBCFFB" stroke-width="0.5" stroke-miterlimit="10"/>
<path d="M1487.24 6345.36C1487.24 6350.94 1491.77 6355.47 1497.35 6355.47C1502.93 6355.47 1507.46 6350.94 1507.46 6345.36H1487.24Z" stroke="#BBCFFB" stroke-width="0.5" stroke-miterlimit="10"/>
<path d="M1363.13 6363.84C1370.55 6363.84 1376.56 6357.83 1376.56 6350.41C1376.56 6342.99 1370.55 6336.98 1363.13 6336.98C1355.71 6336.98 1349.7 6342.99 1349.7 6350.41C1349.7 6357.83 1355.71 6363.84 1363.13 6363.84Z" stroke="#BBCFFB" stroke-width="0.5" stroke-miterlimit="10"/>
<path d="M1673.12 6341.33V6374.39H1706.18V6341.33H1673.12Z" stroke="#BBCFFB" stroke-width="0.5" stroke-miterlimit="10"/>
<path d="M1427.8 6338.37V6364.82H1454.25V6338.37H1427.8Z" stroke="#BBCFFB" stroke-width="0.5" stroke-miterlimit="10"/>
<path d="M1142.01 6375.27C1114.55 6375.27 1092.28 6353.01 1092.28 6325.54H1142.01V6375.27Z" stroke="#BBCFFB" stroke-width="0.5" stroke-miterlimit="10"/>
<path d="M1199.54 6360.05L1182.62 6343.13H1216.45L1199.54 6360.05Z" stroke="#BBCFFB" stroke-width="0.5" stroke-miterlimit="10"/>
<path d="M1226.57 6379.87C1226.57 6385.45 1222.04 6389.98 1216.46 6389.98C1210.88 6389.98 1206.35 6385.45 1206.35 6379.87H1226.57Z" stroke="#BBCFFB" stroke-width="0.5" stroke-miterlimit="10"/>
<path d="M1029.73 6364.11C1036.64 6364.11 1042.25 6358.5 1042.25 6351.59C1042.25 6344.67 1036.64 6339.07 1029.73 6339.07C1022.82 6339.07 1017.21 6344.67 1017.21 6351.59C1017.21 6358.5 1022.82 6364.11 1029.73 6364.11Z" stroke="#BBCFFB" stroke-width="0.5" stroke-miterlimit="10"/>
<path d="M1269.12 6341.32V6374.38H1302.18V6341.32H1269.12Z" stroke="#BBCFFB" stroke-width="0.5" stroke-miterlimit="10"/>
<path d="M987.2 6335.06L954.13 6368.12V6335.06H987.2Z" stroke="#BBCFFB" stroke-width="0.5" stroke-miterlimit="10"/>
</svg>
