<svg width="40" height="41" viewBox="0 0 40 41" fill="none" xmlns="http://www.w3.org/2000/svg">
<path d="M0.390137 19.3103C0.490137 18.5503 0.560134 17.7903 0.700134 17.0403C1.89013 10.8203 5.28012 6.18011 10.8101 3.13011C13.9201 1.42011 17.3001 0.670326 20.8401 0.850326C26.3901 1.13033 31.0501 3.35999 34.7501 7.50999C37.5301 10.64 39.1501 14.3202 39.5401 18.4802C40.0901 24.2902 38.3901 29.4205 34.4501 33.7405C31.4001 37.0805 27.6001 39.0801 23.1401 39.8401C22.4901 39.9501 21.8301 40.0101 21.1701 40.0901H18.8701C18.7701 40.0701 18.6701 40.03 18.5701 40.03C16.1601 39.87 13.8501 39.3002 11.6901 38.2302C5.67012 35.2602 1.98013 30.4801 0.700134 23.8801C0.550134 23.1301 0.490137 22.3701 0.390137 21.6101C0.390137 20.8401 0.390137 20.0803 0.390137 19.3103ZM38.3401 20.4802C38.3701 10.4002 30.1701 2.18037 20.0601 2.14037C9.96012 2.10037 1.72012 10.3202 1.69012 20.4402C1.67012 30.5302 9.86012 38.7503 19.9701 38.7903C30.0601 38.8303 38.3101 30.6005 38.3401 20.4905V20.4802Z" fill="#1B5FF3"/>
<path d="M20.0302 10.6602C22.3102 10.6602 24.5802 10.6602 26.8602 10.6602C27.5502 10.6602 28.1902 10.8 28.7402 11.23C29.5002 11.82 29.8202 12.6198 29.8202 13.5698C29.8202 18.1698 29.8202 22.7799 29.8202 27.3799C29.8202 28.8099 29.0602 29.8302 27.7302 30.1802C27.4602 30.2502 27.1602 30.27 26.8802 30.27C22.3102 30.27 17.7302 30.27 13.1602 30.27C11.6902 30.27 10.6802 29.5302 10.3102 28.2002C10.2302 27.9202 10.2102 27.6098 10.2102 27.3198C10.2102 22.7498 10.2102 18.1701 10.2102 13.6001C10.2102 12.1401 10.9502 11.1198 12.2902 10.7598C12.5802 10.6798 12.9002 10.6602 13.2002 10.6602C15.4802 10.6602 17.7502 10.6602 20.0302 10.6602ZM20.0202 29.1802C22.3202 29.1802 24.6202 29.1802 26.9102 29.1802C28.0602 29.1802 28.7302 28.5301 28.7302 27.3901C28.7302 22.7701 28.7302 18.16 28.7302 13.54C28.7302 12.41 28.0702 11.75 26.9402 11.75C22.3202 11.75 17.7102 11.75 13.0902 11.75C11.9602 11.75 11.3002 12.41 11.3002 13.54C11.3002 18.16 11.3002 22.7701 11.3002 27.3901C11.3002 27.6901 11.3602 28.0098 11.4902 28.2798C11.8202 28.9598 12.4202 29.1902 13.1502 29.1802C15.4402 29.1802 17.7202 29.1802 20.0102 29.1802H20.0202Z" fill="#1B5FF3"/>
<path d="M25.4601 20.49C25.4401 23.5 23.0001 25.9197 20.0001 25.8997C16.9701 25.8797 14.5401 23.4197 14.5801 20.4197C14.6201 17.3997 17.0601 14.9898 20.0501 15.0198C23.0701 15.0598 25.4801 17.49 25.4501 20.49H25.4601ZM20.0101 16.1097C17.6001 16.1097 15.6601 18.0698 15.6701 20.4798C15.6801 22.8798 17.6101 24.8098 20.0201 24.8098C22.4301 24.8098 24.3801 22.86 24.3701 20.45C24.3701 18.04 22.4201 16.0999 20.0101 16.0999V16.1097Z" fill="#1B5FF3"/>
<path d="M27.64 14.4796C27.64 15.3796 26.91 16.1095 26.02 16.1095C25.12 16.1095 24.36 15.3496 24.38 14.4596C24.4 13.5596 25.13 12.8495 26.03 12.8595C26.93 12.8595 27.65 13.5899 27.64 14.4899V14.4796ZM26.54 14.4698C26.54 14.1598 26.3 13.9296 25.99 13.9396C25.7 13.9396 25.47 14.1798 25.47 14.4698C25.47 14.7698 25.72 15.0194 26.02 15.0094C26.31 15.0094 26.54 14.7696 26.54 14.4796V14.4698Z" fill="#1B5FF3"/>
</svg>
