<svg width="243" height="134" viewBox="0 0 243 134" fill="none" xmlns="http://www.w3.org/2000/svg">
<path d="M158.175 122.554H121.264V85.3633C141.647 85.3633 158.175 102.017 158.175 122.554Z" fill="#FFBB33"/>
<path d="M124.457 9.47917L121.478 12.4355L230.514 124.001L233.493 121.044L124.457 9.47917Z" fill="#1B5FF3"/>
<path d="M118.061 9.50998L9.05225 121.086L12.0322 124.042L121.041 12.4658L118.061 9.50998Z" fill="#1B5FF3"/>
<path d="M160.265 124.649H82.2627V122.542C82.2627 100.875 99.7602 83.2441 121.264 83.2441C142.768 83.2441 160.265 100.875 160.265 122.542V124.649ZM86.5027 120.435H156.025C154.939 102.063 139.766 87.4576 121.264 87.4576C102.762 87.4576 87.589 102.063 86.5027 120.435Z" fill="#1B5FF3"/>
<path d="M44.4422 42.1711L41.4854 45.1504L93.7261 97.7881L96.6829 94.8088L44.4422 42.1711Z" fill="#1B5FF3"/>
<path d="M198.157 42.1611L145.916 94.7988L148.873 97.7782L201.114 45.1404L198.157 42.1611Z" fill="#1B5FF3"/>
<path d="M202.257 124.649H40.2832V122.542C40.2832 77.548 76.6097 40.9336 121.276 40.9336C165.943 40.9336 202.269 77.5362 202.269 122.542V124.649H202.257ZM44.4882 120.435H198.052C196.943 78.7249 162.929 45.147 121.264 45.147C79.6 45.147 45.5862 78.7249 44.4765 120.435H44.4882Z" fill="#1B5FF3"/>
<path d="M121.276 85.3633V122.554H84.3652C84.3652 102.017 100.893 85.3633 121.276 85.3633Z" fill="#1B5FF3"/>
<path d="M234.087 124.649H8.45361V122.542C8.45361 59.8588 59.0655 8.8623 121.276 8.8623C183.487 8.8623 234.099 59.8588 234.099 122.542V124.649H234.087ZM12.6469 120.436H229.894C228.772 61.0475 180.473 13.0757 121.276 13.0757C62.079 13.0757 13.7683 61.0475 12.6586 120.436H12.6469Z" fill="#1B5FF3"/>
<path d="M199.617 54.5866C205.636 54.5866 210.515 49.6703 210.515 43.6058C210.515 37.5413 205.636 32.625 199.617 32.625C193.598 32.625 188.719 37.5413 188.719 43.6058C188.719 49.6703 193.598 54.5866 199.617 54.5866Z" fill="#1B5FF3"/>
<path d="M42.9229 54.5866C48.9416 54.5866 53.8208 49.6703 53.8208 43.6058C53.8208 37.5413 48.9416 32.625 42.9229 32.625C36.9041 32.625 32.0249 37.5413 32.0249 43.6058C32.0249 49.6703 36.9041 54.5866 42.9229 54.5866Z" fill="#1B5FF3"/>
<path d="M11.0816 133.535C17.1003 133.535 21.9795 128.619 21.9795 122.554C21.9795 116.49 17.1003 111.573 11.0816 111.573C5.06278 111.573 0.183594 116.49 0.183594 122.554C0.183594 128.619 5.06278 133.535 11.0816 133.535Z" fill="#1B5FF3"/>
<path d="M231.47 133.535C237.489 133.535 242.368 128.619 242.368 122.554C242.368 116.49 237.489 111.573 231.47 111.573C225.451 111.573 220.572 116.49 220.572 122.554C220.572 128.619 225.451 133.535 231.47 133.535Z" fill="#1B5FF3"/>
<path d="M121.276 21.9616C127.295 21.9616 132.174 17.0453 132.174 10.9808C132.174 4.91627 127.295 0 121.276 0C115.257 0 110.378 4.91627 110.378 10.9808C110.378 17.0453 115.257 21.9616 121.276 21.9616Z" fill="#1B5FF3"/>
<path d="M121.276 18.4893C125.392 18.4893 128.728 15.1275 128.728 10.9805C128.728 6.8335 125.392 3.47168 121.276 3.47168C117.16 3.47168 113.824 6.8335 113.824 10.9805C113.824 15.1275 117.16 18.4893 121.276 18.4893Z" fill="#FFBB33"/>
<path d="M199.617 51.1143C203.733 51.1143 207.069 47.7525 207.069 43.6055C207.069 39.4585 203.733 36.0967 199.617 36.0967C195.502 36.0967 192.165 39.4585 192.165 43.6055C192.165 47.7525 195.502 51.1143 199.617 51.1143Z" fill="#5A8EFF"/>
<path d="M42.9229 51.1143C47.0386 51.1143 50.3751 47.7525 50.3751 43.6055C50.3751 39.4585 47.0386 36.0967 42.9229 36.0967C38.8072 36.0967 35.4707 39.4585 35.4707 43.6055C35.4707 47.7525 38.8072 51.1143 42.9229 51.1143Z" fill="#5A8EFF"/>
<path d="M177.167 76.7711C183.186 76.7711 188.065 71.8549 188.065 65.7904C188.065 59.7258 183.186 54.8096 177.167 54.8096C171.149 54.8096 166.27 59.7258 166.27 65.7904C166.27 71.8549 171.149 76.7711 177.167 76.7711Z" fill="#1B5FF3"/>
<path d="M177.168 73.2989C181.283 73.2989 184.62 69.9371 184.62 65.7901C184.62 61.6431 181.283 58.2812 177.168 58.2812C173.052 58.2812 169.715 61.6431 169.715 65.7901C169.715 69.9371 173.052 73.2989 177.168 73.2989Z" fill="#5A8EFF"/>
<path d="M231.47 130.063C235.586 130.063 238.922 126.701 238.922 122.554C238.922 118.407 235.586 115.045 231.47 115.045C227.355 115.045 224.018 118.407 224.018 122.554C224.018 126.701 227.355 130.063 231.47 130.063Z" fill="#FFBB33"/>
<path d="M11.0816 130.063C15.1973 130.063 18.5338 126.701 18.5338 122.554C18.5338 118.407 15.1973 115.045 11.0816 115.045C6.96586 115.045 3.62939 118.407 3.62939 122.554C3.62939 126.701 6.96586 130.063 11.0816 130.063Z" fill="#FFBB33"/>
<path d="M65.3262 76.7711C71.345 76.7711 76.2241 71.8549 76.2241 65.7904C76.2241 59.7258 71.345 54.8096 65.3262 54.8096C59.3074 54.8096 54.4282 59.7258 54.4282 65.7904C54.4282 71.8549 59.3074 76.7711 65.3262 76.7711Z" fill="#1B5FF3"/>
<path d="M65.3257 73.2989C69.4415 73.2989 72.7779 69.9371 72.7779 65.7901C72.7779 61.6431 69.4415 58.2812 65.3257 58.2812C61.21 58.2812 57.8735 61.6431 57.8735 65.7901C57.8735 69.9371 61.21 73.2989 65.3257 73.2989Z" fill="#5A8EFF"/>
</svg>
