<svg width="286" height="359" viewBox="0 0 286 359" fill="none" xmlns="http://www.w3.org/2000/svg">
<mask id="mask0_1103_2424" style="mask-type:luminance" maskUnits="userSpaceOnUse" x="0" y="0" width="286" height="359">
<path d="M276.9 139.729C261.58 164.179 250.84 195.29 249.28 263.08C247.72 330.86 223.54 353.419 210.83 358.379C198.12 363.339 0.0699463 330.419 0.0699463 330.419L55.48 69.3496L75.9399 63.1694L130.08 45.4595C130.08 45.4595 168.61 15.5694 168.96 15.1094C169.31 14.6394 188.49 0.929688 188.49 0.929688L227.87 12.8193C227.87 12.8193 265.43 60.6394 264.06 63.1694C262.69 65.7094 285.79 81.2094 285.18 83.1294C284.57 85.0494 276.91 139.74 276.91 139.74L276.9 139.729Z" fill="white"/>
</mask>
<g mask="url(#mask0_1103_2424)">
<path d="M176.46 281.081L177.17 307.28L165.58 307.65L162.75 276.57L176.46 281.081Z" fill="#FFD88A"/>
<path d="M177.19 304.51C177.19 304.51 169.16 309.19 165.16 301.86L135.79 317.451L181.54 317.17L177.2 304.51H177.19Z" fill="#1B5FF3"/>
<mask id="mask1_1103_2424" style="mask-type:luminance" maskUnits="userSpaceOnUse" x="135" y="301" width="47" height="17">
<path d="M177.19 304.51C177.19 304.51 169.16 309.19 165.16 301.86L135.79 317.451L181.54 317.17L177.2 304.51H177.19Z" fill="white"/>
</mask>
<g mask="url(#mask1_1103_2424)">
<path d="M141.01 308.15C141.01 308.15 152.3 309.84 151.43 323.88L131.88 318.521L141 308.141L141.01 308.15Z" fill="white"/>
</g>
<path d="M181.479 317.17L135.73 317.449L135.754 321.449L181.503 321.17L181.479 317.17Z" fill="#1B5FF3"/>
<path d="M161.67 309.481C161.55 309.431 161.44 309.351 161.35 309.241C159.57 306.911 157.79 305.761 157.77 305.751C157.42 305.531 157.32 305.071 157.56 304.741C157.79 304.401 158.28 304.321 158.62 304.541C158.7 304.591 160.64 305.831 162.59 308.391C162.84 308.721 162.76 309.171 162.42 309.411C162.19 309.571 161.91 309.591 161.66 309.491L161.67 309.481Z" fill="white"/>
<path d="M157.94 311.35C157.82 311.3 157.71 311.22 157.62 311.11C155.84 308.78 154.06 307.63 154.04 307.62C153.69 307.4 153.59 306.94 153.83 306.61C154.06 306.27 154.55 306.19 154.89 306.41C154.97 306.46 156.91 307.7 158.86 310.26C159.11 310.59 159.03 311.04 158.69 311.28C158.46 311.44 158.18 311.46 157.93 311.36L157.94 311.35Z" fill="white"/>
<path d="M154.2 313.221C154.08 313.171 153.97 313.09 153.88 312.98C152.1 310.65 150.32 309.501 150.3 309.491C149.95 309.271 149.85 308.81 150.09 308.48C150.32 308.14 150.81 308.06 151.15 308.28C151.23 308.33 153.17 309.57 155.12 312.13C155.37 312.46 155.29 312.91 154.95 313.15C154.72 313.31 154.44 313.33 154.19 313.23L154.2 313.221Z" fill="white"/>
<path d="M123.03 281.081L123.73 307.28L112.15 307.65L109.31 276.57L123.03 281.081Z" fill="#FFD88A"/>
<path d="M123.75 304.51C123.75 304.51 115.72 309.19 111.72 301.86L82.35 317.451L128.1 317.17L123.76 304.51H123.75Z" fill="#1B5FF3"/>
<mask id="mask2_1103_2424" style="mask-type:luminance" maskUnits="userSpaceOnUse" x="82" y="301" width="47" height="17">
<path d="M123.75 304.51C123.75 304.51 115.72 309.19 111.72 301.86L82.35 317.451L128.1 317.17L123.76 304.51H123.75Z" fill="white"/>
</mask>
<g mask="url(#mask2_1103_2424)">
<path d="M87.58 308.15C87.58 308.15 98.87 309.84 98 323.88L78.45 318.521L87.5699 308.141L87.58 308.15Z" fill="white"/>
</g>
<path d="M128.05 317.176L82.3005 317.455L82.325 321.455L128.074 321.176L128.05 317.176Z" fill="#1B5FF3"/>
<path d="M108.24 309.481C108.12 309.431 108.01 309.351 107.92 309.241C106.14 306.911 104.36 305.761 104.34 305.751C103.99 305.531 103.89 305.071 104.13 304.741C104.36 304.401 104.85 304.321 105.19 304.541C105.27 304.591 107.21 305.831 109.16 308.391C109.41 308.721 109.33 309.171 108.99 309.411C108.76 309.571 108.48 309.591 108.23 309.491L108.24 309.481Z" fill="white"/>
<path d="M104.5 311.35C104.38 311.3 104.27 311.22 104.18 311.11C102.4 308.78 100.62 307.63 100.6 307.62C100.25 307.4 100.15 306.94 100.39 306.61C100.62 306.27 101.11 306.19 101.45 306.41C101.53 306.46 103.47 307.7 105.42 310.26C105.67 310.59 105.59 311.04 105.25 311.28C105.02 311.44 104.74 311.46 104.49 311.36L104.5 311.35Z" fill="white"/>
<path d="M100.76 313.221C100.64 313.171 100.53 313.09 100.44 312.98C98.6599 310.65 96.88 309.501 96.86 309.491C96.51 309.271 96.41 308.81 96.65 308.48C96.88 308.14 97.3699 308.06 97.7099 308.28C97.7899 308.33 99.73 309.57 101.68 312.13C101.93 312.46 101.85 312.91 101.51 313.15C101.28 313.31 101 313.33 100.75 313.23L100.76 313.221Z" fill="white"/>
<path d="M157.12 130.15C153.16 126.73 147.17 127.17 143.75 131.14C140.33 135.1 140.77 141.09 144.74 144.5C148.7 147.92 154.69 147.48 158.11 143.51C161.53 139.55 161.09 133.56 157.12 130.15Z" fill="#FFD88A"/>
<path d="M159.34 141.701L170.35 120.53L149.58 119.391L142.53 132.96L159.34 141.701Z" fill="#FFD88A"/>
<path d="M171.84 130.07L179.89 101.581L162.27 94.9805L149.58 119.391L171.84 130.07Z" fill="#1B5FF3"/>
<path d="M166.31 107.76C170.95 110.17 176.67 108.37 179.09 103.72C181.5 99.0804 179.7 93.3501 175.05 90.9401C170.41 88.5301 164.69 90.3302 162.27 94.9802C159.86 99.6202 161.66 105.35 166.31 107.76Z" fill="#1B5FF3"/>
<path d="M157.26 130.87L126.85 103.58L116.55 112.65L143.94 144.35L157.26 130.87Z" fill="#FFD88A"/>
<path d="M157.34 144.499C161.08 140.839 161.15 134.84 157.49 131.1C153.83 127.36 147.83 127.29 144.09 130.95C140.35 134.61 140.28 140.61 143.94 144.35C147.6 148.09 153.6 148.159 157.34 144.499Z" fill="#FFD88A"/>
<path d="M126.32 112.759C129.05 110.089 129.1 105.72 126.43 102.99C123.76 100.26 119.39 100.209 116.66 102.879C113.93 105.549 113.88 109.919 116.55 112.649C119.22 115.379 123.59 115.429 126.32 112.759Z" fill="#FFD88A"/>
<path d="M124.56 114.009C121.14 115.699 117 114.309 115.3 110.889C113.61 107.469 115 103.329 118.42 101.629C121.84 99.939 125.98 101.329 127.68 104.749C129.37 108.169 127.98 112.309 124.56 114.009Z" fill="#FFD88A"/>
<path d="M118.35 113.97C114.95 112.23 113.61 108.07 115.34 104.68C117.08 101.28 121.24 99.9395 124.63 101.669C128.03 103.409 129.37 107.57 127.64 110.96C125.9 114.36 121.74 115.7 118.35 113.97Z" fill="#FFD88A"/>
<path d="M126.24 97.4295C124.07 94.5095 118.99 92.8592 118.99 92.8592C118.99 92.8592 105.86 87.8294 102 88.5394C99.2 89.0494 108.79 92.5194 110.78 93.3294C109.38 93.6694 109.08 94.1993 109.12 94.7493C109.23 96.2893 111.52 96.1092 111.52 96.1092C111.52 96.1092 109.01 96.0595 109.1 97.4695C109.17 98.5595 111.59 99.0194 111.59 99.0194C111.59 99.0194 109.77 99.5493 110.28 100.669C110.8 101.789 112.46 102.069 111.89 103.589C110.11 108.299 115.97 111.999 115.97 111.999L121.98 109.139L126.22 97.4295H126.24Z" fill="#FFD88A"/>
<path d="M128.4 107.819C128.4 107.819 130.05 99.0894 128.84 96.3094C126.71 91.4394 122.41 89.6193 121.5 91.1893C120.59 92.7593 123.7 95.4792 124.01 97.0892C124.63 100.299 117.3 104.1 119.82 109.49L128.41 107.809L128.4 107.819Z" fill="#FFD88A"/>
<path d="M136.67 211.09L127.97 288.44L104.9 287L110.99 208.84L136.67 211.09Z" fill="#5A8EFF"/>
<path d="M256.58 71.0898H181.3L177.13 183.16C178.1 196.44 167.59 207.75 154.28 207.75H229.56C242.88 207.75 253.39 196.44 252.41 183.16L256.58 71.0898Z" fill="#002E94"/>
<path d="M258.67 71.0898H256.58L252.41 183.16C253.38 196.44 242.87 207.75 229.56 207.75H136.85V209.83H229.56C236.48 209.83 243.16 206.92 247.87 201.85C252.58 196.78 254.99 189.91 254.49 183L258.67 71.0801V71.0898Z" fill="#BBCFFB"/>
<path d="M227.86 207.75H136.85V209.83H227.86V207.75Z" fill="#BBCFFB"/>
<path d="M247.88 201.85C246.02 203.86 243.84 205.51 241.46 206.79L251.15 310.33H254.28L247.96 201.75C247.96 201.75 247.91 201.81 247.88 201.84V201.85Z" fill="#BBCFFB"/>
<path d="M209.24 209.83L198.63 310.34H201.76L215.96 209.83H209.24Z" fill="#BBCFFB"/>
<path d="M144.34 209.83L133.72 310.34H136.85L151.06 209.83H144.34Z" fill="#BBCFFB"/>
<path d="M120.65 197.389C113.75 199.149 109.58 206.159 111.34 213.059C113.1 219.959 120.11 224.129 127.01 222.369C133.91 220.609 138.08 213.599 136.32 206.699C134.56 199.799 127.55 195.629 120.65 197.389Z" fill="#5A8EFF"/>
<path d="M180.97 174.68C172.83 176.75 167.91 185.03 169.98 193.17C172.05 201.31 180.33 206.23 188.47 204.16C196.61 202.09 201.53 193.81 199.46 185.67C197.39 177.53 189.11 172.61 180.97 174.68Z" fill="#302624"/>
<path d="M120.65 197.39L180.97 174.68L188.48 204.16L127.01 222.37L120.65 197.39Z" fill="#5A8EFF"/>
<path d="M179.24 174.21H194.61C194.61 174.21 194.7 174.21 194.74 174.21H226.28C226.28 174.21 226.32 174.21 226.34 174.21C226.36 174.21 226.38 174.21 226.4 174.21H241.55V189.52C241.49 197.87 234.71 204.63 226.34 204.63H194.5C193.92 204.63 193.34 204.6 192.75 204.53C185.03 203.64 179.34 197.11 179.3 189.52H179.24V174.21Z" fill="#302624"/>
<path d="M179.24 174.21H194.61C194.61 174.21 194.7 174.21 194.74 174.21H226.28C226.28 174.21 226.32 174.21 226.34 174.21C226.36 174.21 226.38 174.21 226.4 174.21H241.55V189.52C241.49 197.87 234.71 204.63 226.34 204.63H194.5C193.92 204.63 193.34 204.6 192.75 204.53C185.03 203.64 179.34 197.11 179.3 189.52H179.24V174.21Z" fill="#302624"/>
<path d="M171.55 208.07L179.75 286.141C179.75 286.141 169.44 290.84 159.56 289.5L146.05 211.86L171.55 208.07Z" fill="#5A8EFF"/>
<path d="M155.62 197.389C148.72 199.149 144.55 206.159 146.31 213.059C148.07 219.959 155.08 224.129 161.98 222.369C168.88 220.609 173.05 213.599 171.29 206.699C169.53 199.799 162.52 195.629 155.62 197.389Z" fill="#5A8EFF"/>
<path d="M222.59 174.68C214.45 176.75 209.53 185.03 211.6 193.17C213.67 201.31 221.95 206.23 230.09 204.16C238.23 202.09 243.15 193.81 241.08 185.67C239.01 177.53 230.73 172.61 222.59 174.68Z" fill="#5A8EFF"/>
<path d="M155.62 197.39L222.59 174.68L230.1 204.16L161.98 222.37L155.62 197.39Z" fill="#5A8EFF"/>
<path d="M241.55 174.21L241.37 137.29L238.08 110.63L248.47 97.9199L248.3 97.2598C247.13 92.8498 216.43 79.2298 205.9 77.5698C205.41 77.4898 204.84 77.4502 204.22 77.4502C195.1 77.4502 170.92 86.0902 163.57 92.9102L162.48 94.0898L171.64 101.1C172.17 140.98 168.31 179.66 168.31 179.66C168.31 179.66 240.88 174.47 241.56 174.21H241.55Z" fill="#1B5FF3"/>
<path d="M215.83 78.9395L219 81.4897C219 81.4897 219.06 91.0296 203.59 90.5396C187.73 90.0296 187.77 81.0396 187.77 81.0396L190.59 79.4995L215.84 78.9395H215.83Z" fill="#FFD88A"/>
<path d="M188.964 49.2816C190.112 48.6189 190.154 46.5426 189.058 44.6438C187.961 42.7449 186.142 41.7427 184.994 42.4055C183.846 43.0682 183.804 45.145 184.901 47.0438C185.997 48.9426 187.816 49.9444 188.964 49.2816Z" fill="#FFD88A"/>
<path d="M223.623 47.0408C224.719 45.142 224.677 43.0655 223.529 42.4028C222.381 41.74 220.562 42.7421 219.466 44.6409C218.369 46.5397 218.411 48.6163 219.559 49.2791C220.707 49.9418 222.526 48.9396 223.623 47.0408Z" fill="#FFD88A"/>
<path d="M188.02 63.4102L204.23 66.8999L220.45 63.4102L222.01 38.2002L219.3 22.1699L203.83 22.6899L189.66 22.1699L186.46 38.2002L188.02 63.4102Z" fill="#FFD88A"/>
<path d="M205 51.3105H206.29L205 40.3906V51.3105Z" fill="#FFBB33"/>
<path d="M194.23 66.7202L190.58 79.5C195.63 86.79 209.87 87.0499 215.83 78.9399L213.14 68.5601L220.46 63.4102H188.01L194.23 66.7202Z" fill="#FFD88A"/>
<path d="M194.23 66.7202L193.58 68.98L215.83 78.9399L213.14 68.5601L220.46 63.4102H188.01L194.23 66.7202Z" fill="#FFBB33"/>
<path d="M186.07 41.6497C186.07 41.6497 182.5 28.8399 184.75 20.5799C187 12.3199 194.7 5.88987 203.81 11.2899C212.92 16.6799 219.6 15.8697 222.58 22.5697C225.57 29.2697 223.64 45.5698 221.12 40.4798C218.6 35.3898 217.8 27.1998 218.69 25.7498C219.59 24.3098 208.1 31.9101 191.61 25.2401C190.57 24.8301 190.79 27.1598 190.68 29.7298C190.57 32.2998 187.58 42.88 186.06 41.66L186.07 41.6497Z" fill="#1B5FF3"/>
<path d="M197.39 41.5801C198.252 41.5801 198.95 40.8816 198.95 40.02C198.95 39.1585 198.252 38.46 197.39 38.46C196.528 38.46 195.83 39.1585 195.83 40.02C195.83 40.8816 196.528 41.5801 197.39 41.5801Z" fill="#1B5FF3"/>
<path d="M211.88 41.5801C212.742 41.5801 213.44 40.8816 213.44 40.02C213.44 39.1585 212.742 38.46 211.88 38.46C211.018 38.46 210.32 39.1585 210.32 40.02C210.32 40.8816 211.018 41.5801 211.88 41.5801Z" fill="#1B5FF3"/>
<path d="M202.42 34.7403C199.13 35.0903 196.08 35.8599 193.01 37.0899L192.94 36.9801C194.23 35.9101 195.8 35.1902 197.43 34.8102C199.06 34.4202 200.77 34.29 202.42 34.61V34.7403Z" fill="#1B5FF3"/>
<path d="M207.43 34.6204C210.7 34.0504 214.32 34.8905 216.91 36.9905L216.84 37.1003C213.77 35.8603 210.72 35.0902 207.43 34.7502V34.6204Z" fill="#1B5FF3"/>
<path d="M199.4 53.9805C200.57 54.7505 202.35 55.2505 204.35 55.2505C206.22 55.2505 207.9 54.8206 209.07 54.1206" stroke="#1B5FF3" stroke-width="0.39" stroke-miterlimit="10" stroke-linecap="round"/>
<path d="M204.55 58.6797V60.1494" stroke="#1B5FF3" stroke-width="0.26" stroke-miterlimit="10" stroke-linecap="round"/>
<path d="M204.82 39.46V51.4502" stroke="#1B5FF3" stroke-width="0.2" stroke-miterlimit="10"/>
<path d="M269.078 134.026C270.912 128.653 268.042 122.811 262.669 120.978C257.296 119.144 251.453 122.014 249.62 127.387C247.787 132.76 250.656 138.603 256.03 140.436C261.403 142.269 267.245 139.4 269.078 134.026Z" fill="#FFD88A"/>
<path d="M267.3 124.7L251 104.6L240.88 124.77L251.34 137.649L267.3 124.7Z" fill="#FFD88A"/>
<path d="M261.13 107.24L236.26 86.9199L222.08 101.6L240.88 124.77L261.13 107.24Z" fill="#1B5FF3"/>
<path d="M236.54 103.11C240.95 99.5299 241.62 93.06 238.04 88.65C234.46 84.24 227.99 83.57 223.58 87.15C219.17 90.73 218.5 97.1999 222.08 101.61C225.66 106.02 232.13 106.69 236.54 103.11Z" fill="#1B5FF3"/>
<path d="M251.53 124.48L224.07 160.69L235.44 170.46L267.12 137.88L251.53 124.48Z" fill="#FFD88A"/>
<path d="M266.02 123.38C261.71 119.68 255.22 120.17 251.52 124.48C247.82 128.79 248.31 135.28 252.62 138.98C256.93 142.68 263.42 142.19 267.12 137.88C270.82 133.57 270.33 127.08 266.02 123.38Z" fill="#FFD88A"/>
<path d="M234.64 159.89C231.5 157.19 226.77 157.55 224.07 160.69C221.37 163.83 221.73 168.559 224.87 171.259C228.01 173.959 232.74 173.6 235.44 170.46C238.14 167.32 237.78 162.59 234.64 159.89Z" fill="#FFD88A"/>
<path d="M224.07 160.69C219.63 163.15 210.91 171.15 211.42 172.34C211.93 173.53 220.59 168.17 220.59 168.17L224.08 160.69H224.07Z" fill="#FFD88A"/>
<path d="M224.07 160.69C217.84 166.9 208.48 181.861 209.24 183.041C210 184.221 217.64 174.971 217.64 174.971C217.64 174.971 211.36 184.041 212.8 185.471C214.24 186.901 220 176.831 220 176.831C220 176.831 215.4 187.92 216.86 188.44C218.31 188.97 222.51 178.01 222.51 178.01C222.51 178.01 220.74 188.111 222.15 188.221C223.56 188.331 224.91 180.02 225.52 178.38C226.13 176.73 231.61 178.01 235.43 170.46L224.06 160.69H224.07Z" fill="#FFD88A"/>
<path d="M236.16 161.681C238.31 165.221 237.19 169.831 233.66 171.981C230.12 174.131 225.51 173.011 223.36 169.481C221.21 165.941 222.33 161.331 225.86 159.181C229.4 157.031 234.01 158.151 236.16 161.681Z" fill="#FFD88A"/>
<path d="M66.55 191.93L57.1899 310.339H60.3199L80.34 191.93H66.55Z" fill="#5A8EFF"/>
<path d="M250.77 176.66H55.48V195.8H250.77V176.66Z" fill="#002E94"/>
<path d="M261.83 191.93L252.48 310.339H255.61L275.62 191.93H261.83Z" fill="#5A8EFF"/>
<path d="M325.26 172.21H49.8V176.66H325.26V172.21Z" fill="#002E94"/>
<path d="M250.76 195.8H319.59V176.66H250.76V195.8Z" fill="#002E94"/>
<path d="M195.62 83.1201H89.4399C88.0482 83.1201 86.92 84.2484 86.92 85.6401V154.79C86.92 156.182 88.0482 157.31 89.4399 157.31H195.62C197.012 157.31 198.14 156.182 198.14 154.79V85.6401C198.14 84.2484 197.012 83.1201 195.62 83.1201Z" fill="#FFC043"/>
<path d="M167.61 169.16H111.45V172.21H167.61V169.16Z" fill="#FFC043"/>
<path d="M182.69 169.16H167.61V172.21H182.69V169.16Z" fill="white"/>
<path d="M144.98 172.209L152.05 130.93H133.92L126.85 172.209H144.98Z" fill="#FFC043"/>
<path d="M180.685 280.241L155.557 281.501L156.128 292.887L181.256 291.627L180.685 280.241Z" fill="#97B9FD"/>
<path d="M103.08 282.422L102.537 293.809L129.586 295.098L130.129 283.711L103.08 282.422Z" fill="#97B9FD"/>
<path d="M238.7 122.08L225.17 105.84" stroke="#FFBB33" stroke-width="0.58" stroke-linecap="round" stroke-linejoin="round"/>
<path d="M17.4301 320.96H275.62" stroke="#1B5FF3" stroke-width="0.4" stroke-miterlimit="10"/>
</g>
</svg>
