<svg width="429" height="230" viewBox="0 0 429 230" fill="none" xmlns="http://www.w3.org/2000/svg">
<path d="M283.88 154.4C298.4 158.93 321.4 150.46 330.76 142.07C337.82 135.74 338.61 124.87 337.71 116.11C335.58 95.43 324.85 76.6899 316.59 58.0099C311.53 46.5799 297.76 37.5999 285.63 35.5099C276.35 33.9099 266.49 37.19 259.6 43.61C252.71 50.03 248.78 59.3499 248.38 68.7599C247.65 86.1199 254.62 106.17 262.45 121.43C267.86 131.97 270.65 150.28 283.89 154.4H283.88Z" fill="#1B5FF3"/>
<path d="M248.7 132.34L214.67 170.68L196.25 153.19C193.75 150.82 189.85 150.79 187.32 153.13L176.86 162.78C174.86 164.62 174.21 167.51 175.23 170.03C180.27 182.49 196.22 218.23 213.39 218.44C234.19 218.7 260.38 167.6 260.38 167.6L248.7 132.34Z" fill="#5A8EFF"/>
<path d="M133.82 87.79H119.71C118.417 87.79 117.37 88.8375 117.37 90.1299V104.24C117.37 105.533 118.417 106.58 119.71 106.58H133.82C135.112 106.58 136.16 105.533 136.16 104.24V90.1299C136.16 88.8375 135.112 87.79 133.82 87.79Z" fill="#FFBB33"/>
<path d="M125.72 100.391L122.97 97.6406L124.54 96.0703L125.72 97.2505L128.99 93.9805L130.56 95.5503L125.72 100.391Z" fill="#1B5FF3"/>
<path d="M222.03 26.2002L239.25 26.2002C240.542 26.2002 241.59 25.1522 241.59 23.8599V6.64014C241.59 5.34779 240.542 4.2998 239.25 4.2998L222.03 4.2998C220.738 4.2998 219.69 5.34779 219.69 6.64014V23.8599C219.69 25.1522 220.738 26.2002 222.03 26.2002Z" fill="#1B5FF3"/>
<path d="M234.67 16.4707H235.89C236.14 16.4707 236.34 16.2705 236.34 16.0205V14.4604C236.34 14.2104 236.14 14.0103 235.89 14.0103H234.94C234.78 14.0103 234.65 13.9103 234.59 13.7603C234.56 13.6703 234.52 13.5805 234.48 13.5005C234.41 13.3605 234.44 13.1906 234.55 13.0806L235.23 12.4004C235.4 12.2304 235.4 11.9405 235.23 11.7705L234.13 10.6704C233.96 10.5004 233.67 10.5004 233.5 10.6704L232.82 11.3506C232.71 11.4606 232.55 11.4907 232.41 11.4307C232.31 11.3907 232.21 11.3505 232.12 11.3105C231.98 11.2505 231.89 11.1207 231.89 10.9707V10.0103C231.89 9.76025 231.69 9.56055 231.44 9.56055H229.88C229.63 9.56055 229.43 9.76025 229.43 10.0103V10.9707C229.43 11.1307 229.33 11.2603 229.18 11.3203C229.09 11.3603 228.99 11.3904 228.9 11.4404C228.76 11.5104 228.59 11.4806 228.48 11.3706L227.8 10.7007C227.62 10.5307 227.34 10.5307 227.17 10.7007L226.07 11.8003C225.9 11.9803 225.9 12.2607 226.07 12.4307L226.75 13.1104C226.86 13.2204 226.89 13.3805 226.83 13.5205C226.79 13.6205 226.75 13.7205 226.71 13.8105C226.65 13.9505 226.52 14.0405 226.37 14.0405H225.4C225.15 14.0405 224.95 14.2407 224.95 14.4907V16.0503C224.95 16.3003 225.16 16.5005 225.4 16.5005H226.36C226.52 16.5005 226.65 16.6005 226.71 16.7505C226.74 16.8405 226.78 16.9303 226.82 17.0103C226.89 17.1503 226.86 17.3207 226.75 17.4307L226.08 18.1104C225.91 18.2904 225.91 18.5707 226.08 18.7407L227.18 19.8403C227.35 20.0103 227.64 20.0103 227.81 19.8403L228.49 19.1606C228.6 19.0506 228.76 19.0206 228.9 19.0806C229 19.1206 229.1 19.1607 229.19 19.2007C229.33 19.2507 229.42 19.3905 229.42 19.5405V20.5005C229.42 20.7505 229.62 20.9507 229.87 20.9507H231.43C231.68 20.9507 231.88 20.7505 231.88 20.5005V19.5405C231.88 19.3805 231.98 19.2504 232.13 19.1904C232.22 19.1604 232.31 19.1206 232.39 19.0806C232.53 19.0106 232.7 19.0404 232.81 19.1504L233.49 19.8203C233.66 19.9903 233.95 19.9903 234.12 19.8203L235.22 18.7207C235.39 18.5507 235.39 18.2603 235.22 18.0903L234.54 17.4106C234.43 17.3006 234.4 17.1405 234.46 17.0005C234.56 16.7705 234.66 16.4907 234.67 16.4707ZM228.48 14.8506C228.74 13.4706 230.16 12.7004 231.45 13.1904C232.42 13.5704 233.02 14.6206 232.82 15.6406C232.56 17.0206 231.14 17.7903 229.85 17.3003C228.88 16.9203 228.28 15.8706 228.48 14.8506Z" fill="white"/>
<path d="M350.7 66.3393L352.57 56.2396C350.96 52.6296 350.1 48.6093 350.28 44.3593C350.85 30.4993 362.24 19.3096 376.11 18.9896C391.27 18.6396 403.63 31.0494 403.19 46.2294C402.8 59.8394 391.93 71.0595 378.33 71.8695C372.56 72.2095 367.18 70.6793 362.7 67.8593L353.85 69.4794C351.99 69.8194 350.36 68.1895 350.71 66.3295L350.7 66.3393Z" fill="#1B5FF3"/>
<path d="M384.47 39.56C384.47 34.98 380.5 31.3299 375.81 31.8599C372.35 32.2499 369.53 34.9899 369.05 38.4399C368.7 40.9499 369.55 43.2701 371.11 44.9101C371.96 45.8001 372.4 46.9899 372.4 48.2099V49.8398H381.03V48.2099C381.03 46.9899 381.46 45.8002 382.3 44.9302C383.64 43.5402 384.46 41.65 384.46 39.56H384.47Z" fill="#FFBB33"/>
<path d="M380.98 51.3398H372.35V53.3301H380.98V51.3398Z" fill="#FFBB33"/>
<path d="M380.98 54.3906H372.35V56.3804H380.98V54.3906Z" fill="#FFBB33"/>
<path d="M377.82 57.0996H375.5V59.0894H377.82V57.0996Z" fill="#FFBB33"/>
<path d="M428.01 228.971H1.1499" stroke="#1B5FF3" stroke-width="0.54" stroke-miterlimit="10" stroke-linecap="round"/>
<path d="M310.41 123.39L303.41 122.79L301.76 115.109L277.37 118.49V124.12L261.02 125.83C252.73 126.7 246.03 132.949 244.58 141.149L239.68 168.879C238.66 174.659 240.6 180.569 244.86 184.609L248.32 187.89L249.09 228.979H348.28L337.6 145.87C334.1 133.45 323.27 124.509 310.42 123.399L310.41 123.39Z" fill="#5A8EFF"/>
<path d="M345.6 208.18L348.27 228.97H278.62L345.6 208.18Z" fill="#1B5FF3"/>
<path d="M296.07 122.15L312.67 123.581C325.39 124.681 337.09 131.03 344.89 141.13C357.19 157.05 373.86 181.72 375.14 199.76C376.55 219.85 327.58 223.43 309.82 225.32C305.27 225.8 300.93 223.18 299.32 218.9C297.81 214.88 296.85 209.01 298.38 200.92C299.08 197.19 301.92 194.23 305.62 193.38L326.12 188.661C326.12 188.661 305.58 167.6 305.32 157.59C305.06 147.58 296.08 122.15 296.08 122.15H296.07Z" fill="#5A8EFF"/>
<path d="M348.27 219.72C334.31 223.1 318.41 224.41 309.82 225.33C305.27 225.81 300.93 223.19 299.32 218.91C297.81 214.89 296.85 209.02 298.38 200.93C299.08 197.2 301.92 194.24 305.62 193.39L326.12 188.67" stroke="#FFC043" stroke-width="0.54" stroke-miterlimit="10" stroke-linecap="round"/>
<path d="M305.24 201.6L285.92 202.64L264.49 213.96C263.41 214.53 262.98 215.85 263.52 216.95C264.04 218.02 265.3 218.5 266.4 218.05L280.36 212.36C280.6 212.26 280.77 212.59 280.56 212.73L266.1 222.49C265.09 223.17 264.83 224.56 265.54 225.56C266.2 226.5 267.47 226.77 268.45 226.18L284.76 216.36C284.92 216.26 285.09 216.48 284.95 216.61L278.61 222.41C277.18 223.71 277.82 226.09 279.7 226.51C280.3 226.64 280.92 226.54 281.45 226.23L288.1 222.24L305.64 222.37C311.4 222.4 316.09 217.74 316.09 211.98C316.09 206.07 311.16 201.35 305.25 201.6H305.24Z" fill="#FFD88A"/>
<path d="M297.65 94.3105L302.05 116.53C302.39 118.26 276.72 119.63 276.72 118.11L277.37 95.5605L297.65 94.3203V94.3105Z" fill="#FFD88A"/>
<path d="M307.905 84.9387C311.487 83.7233 313.406 79.8341 312.191 76.2515C310.976 72.6689 307.086 70.7499 303.503 71.9653C299.921 73.1807 298.002 77.0704 299.217 80.653C300.433 84.2356 304.322 86.1542 307.905 84.9387Z" fill="#FFD88A"/>
<path d="M307.905 84.9387C311.487 83.7233 313.406 79.8341 312.191 76.2515C310.976 72.6689 307.086 70.7499 303.503 71.9653C299.921 73.1807 298.002 77.0704 299.217 80.653C300.433 84.2356 304.322 86.1542 307.905 84.9387Z" stroke="#1B5FF3" stroke-width="0.54" stroke-miterlimit="10"/>
<path d="M303.83 61.37C303.83 61.37 315.01 105.69 283.36 111.45C251.7 117.21 259.14 57.9101 259.14 57.9101C259.14 57.9101 278.8 30.38 303.83 61.37Z" fill="#FFD88A"/>
<path d="M306.12 35.5099C304.53 37.5799 303.65 40.1599 303.52 42.7599C303.47 43.7299 303.3 45.0703 303.74 45.9703C304.35 47.2203 305.28 48.3602 306.29 49.3102C306.92 49.9002 307.63 50.3402 308.32 50.8502C309.18 51.4902 309.74 52.0702 310.79 52.5602C314.96 54.5202 320.27 53.7801 323.71 50.7101C327.14 47.6401 328.46 42.3899 326.82 38.0899C325.32 34.1399 321.47 31.2201 317.27 30.7301C313.07 30.2401 308.7 32.1599 306.13 35.5099H306.12Z" fill="#1B5FF3"/>
<path d="M274.96 89.8301L274.83 95.2402C274.82 95.4902 275.06 95.6799 275.31 95.6099L278.37 94.6802" stroke="#1B5FF3" stroke-width="0.54" stroke-miterlimit="10" stroke-linecap="round"/>
<path d="M268.12 75.78C268.12 75.78 265.02 73.79 261.58 75.78" stroke="#1B5FF3" stroke-width="0.54" stroke-miterlimit="10" stroke-linecap="round"/>
<path d="M289.43 75.7403C289.43 75.7403 286.41 73.62 282.89 75.48" stroke="#1B5FF3" stroke-width="0.54" stroke-miterlimit="10" stroke-linecap="round"/>
<path d="M264.82 83.0503C265.588 83.0503 266.21 82.3074 266.21 81.3906C266.21 80.4738 265.588 79.7305 264.82 79.7305C264.052 79.7305 263.43 80.4738 263.43 81.3906C263.43 82.3074 264.052 83.0503 264.82 83.0503Z" fill="#1B5FF3"/>
<path d="M283.49 81.8003C283.49 82.7103 284.11 83.4604 284.88 83.4604C285.65 83.4604 286.27 82.7203 286.27 81.8003C286.27 80.8903 285.65 80.1406 284.88 80.1406C284.11 80.1406 283.49 80.8803 283.49 81.8003Z" fill="#1B5FF3"/>
<path d="M284.23 97.1895C284.23 97.1895 284.58 101.079 279.77 101.299" stroke="#1B5FF3" stroke-width="0.54" stroke-miterlimit="10" stroke-linecap="round"/>
<path d="M140.72 129.78C141.91 128.41 144.01 128.311 145.32 129.561L157.3 140.991L153.65 129.141C155.57 126.671 158.1 129.141 158.1 129.141L164.5 139.981L163.45 130.55C164.63 127.72 167.61 130.8 167.61 130.8L172.13 140.541L172.78 138.021C172.78 138.021 175.08 135.12 176.89 134.07C177.32 133.82 177.88 133.96 178.15 134.38C178.6 135.09 179.16 136.361 178.85 137.981C178.36 140.561 177.75 140.221 177.75 140.221L177.66 144.84L178.26 144.871L183.14 139.651L185.52 135.481C186.56 133.661 188.5 132.53 190.6 132.53H190.63C190.86 132.53 191.05 132.731 191.02 132.961L189.35 143.251L191.06 150.01L191.2 150.221C194.59 155.181 193.65 161.911 189.02 165.751C185.25 168.881 179.92 169.321 175.69 166.851L169.13 163.021C166.15 161.271 163.5 159 161.32 156.32L140.66 130.831C140.41 130.521 140.41 130.07 140.68 129.76L140.72 129.78Z" fill="#FFD88A"/>
<path d="M358.89 199.25H384.53C385.09 199.25 385.54 199.7 385.54 200.26V224.68C385.54 227.01 383.65 228.9 381.32 228.9H362.11C359.78 228.9 357.89 227.01 357.89 224.68V200.26C357.89 199.7 358.34 199.25 358.9 199.25H358.89Z" fill="#FFBB33"/>
<path d="M385.54 205.391H388.45C390.66 205.391 392.44 207.18 392.44 209.38V210.081C392.44 212.291 390.65 214.07 388.45 214.07H385.54" stroke="#1B5FF3" stroke-width="0.54" stroke-miterlimit="10" stroke-linecap="round"/>
<path d="M361.64 203.6V216.91" stroke="#1B5FF3" stroke-width="0.54" stroke-miterlimit="10" stroke-linecap="round"/>
<path d="M111.43 199.32H137.07C137.63 199.32 138.08 199.771 138.08 200.331V224.75C138.08 227.08 136.19 228.971 133.86 228.971H114.65C112.32 228.971 110.43 227.08 110.43 224.75V200.331C110.43 199.771 110.88 199.32 111.44 199.32H111.43Z" fill="#1B5FF3"/>
<path d="M111.43 199.32H137.07C137.63 199.32 138.08 199.771 138.08 200.331V224.75C138.08 227.08 136.19 228.971 133.86 228.971H114.65C112.32 228.971 110.43 227.08 110.43 224.75V200.331C110.43 199.771 110.88 199.32 111.44 199.32H111.43Z" stroke="#1B5FF3" stroke-width="0.54" stroke-miterlimit="10" stroke-linecap="round"/>
<path d="M128.38 180.709C127.65 177.129 125 174.139 121.81 172.339C118.63 170.539 114.95 169.799 111.31 169.439C112.07 172.159 110.57 174.93 109.66 177.6C108.62 180.67 108.34 184.079 109.43 187.129C110.06 188.879 111.17 190.469 112.62 191.629C114.1 192.809 115.8 193.08 117.54 193.68C118.44 193.99 119.27 194.56 120.22 194.6C121.6 194.66 122.77 193.579 123.53 192.419C124.16 191.459 124.62 190.39 125.34 189.5C126.02 188.66 126.82 188.02 127.37 187.04C128.44 185.14 128.8 182.84 128.37 180.7L128.38 180.709Z" fill="#FFBB33"/>
<path d="M146.76 184.28C146.42 181.4 145.42 178.65 144.82 175.81C144.2 172.88 144.02 169.86 144.29 166.88C140.97 170.75 134.98 170.77 130.7 173.54C128.19 175.16 126.4 177.73 125.45 180.54C124.39 183.68 124.32 186.92 125.61 189.98C125.67 190.12 125.73 190.25 125.78 190.39C126.17 191.29 126.56 192.2 126.95 193.1C127.14 193.55 127.39 194.04 127.85 194.18C128.06 194.24 128.28 194.22 128.5 194.22C130.06 194.18 131.51 194.85 133.02 195.13C134.38 195.37 135.93 195.36 137.32 195.33C140.01 195.26 142.87 194.55 144.73 192.47C146.67 190.32 147.1 187.17 146.77 184.29L146.76 184.28Z" fill="#FFBB33"/>
<path d="M114.77 174.34C119.52 181.61 120.6 190.64 121.05 199.32" stroke="#1B5FF3" stroke-width="0.54" stroke-miterlimit="10" stroke-linecap="round"/>
<path d="M139.58 176.279C133.2 182.499 128.69 190.619 126.77 199.319" stroke="#1B5FF3" stroke-width="0.54" stroke-miterlimit="10" stroke-linecap="round"/>
<path d="M131.52 48.3008H152.62C154.111 48.3008 155.32 47.0918 155.32 45.6006V11.5908C155.32 10.0997 154.111 8.89062 152.62 8.89062H131.52C130.029 8.89062 128.82 10.0997 128.82 11.5908V45.6006C128.82 47.0918 130.029 48.3008 131.52 48.3008Z" fill="#1B5FF3"/>
<path d="M138.61 23.3008H143.1C143.625 23.3008 144.05 22.8753 144.05 22.3506V16.2207C144.05 15.696 143.625 15.271 143.1 15.271H138.61C138.085 15.271 137.66 15.696 137.66 16.2207V22.3506C137.66 22.8753 138.085 23.3008 138.61 23.3008Z" fill="#FFBB33"/>
<path d="M147.72 21.9902H149.04C149.161 21.9902 149.26 21.8915 149.26 21.77V12.9902C149.26 12.8687 149.161 12.77 149.04 12.77H147.72C147.598 12.77 147.5 12.8687 147.5 12.9902V21.77C147.5 21.8915 147.598 21.9902 147.72 21.9902Z" fill="white"/>
<path d="M147.72 33.1504H149.04C149.161 33.1504 149.26 33.0517 149.26 32.9302V24.1504C149.26 24.0289 149.161 23.9302 149.04 23.9302H147.72C147.598 23.9302 147.5 24.0289 147.5 24.1504V32.9302C147.5 33.0517 147.598 33.1504 147.72 33.1504Z" fill="white"/>
<path d="M147.72 44.3203H149.04C149.161 44.3203 149.26 44.2221 149.26 44.1006V35.3203C149.26 35.1988 149.161 35.1006 149.04 35.1006H147.72C147.598 35.1006 147.5 35.1988 147.5 35.3203V44.1006C147.5 44.2221 147.598 44.3203 147.72 44.3203Z" fill="white"/>
<path d="M140.66 1.77979C140.66 2.54979 141.29 3.18018 142.06 3.18018C142.83 3.18018 143.46 2.54979 143.46 1.77979C143.46 1.00979 142.83 0.379883 142.06 0.379883C141.29 0.379883 140.66 1.00979 140.66 1.77979Z" fill="#FFBB33"/>
<path d="M127.42 6.09034C127.81 6.76034 128.67 6.99059 129.34 6.60059C130.01 6.21059 130.24 5.35067 129.85 4.68067C129.46 4.01067 128.6 3.78042 127.93 4.17042C127.26 4.56042 127.03 5.42034 127.42 6.09034Z" fill="#FFBB33"/>
<path d="M118.11 16.4502C118.78 16.8402 119.64 16.6002 120.03 15.9302C120.42 15.2602 120.18 14.3997 119.51 14.0097C118.84 13.6197 117.98 13.8598 117.59 14.5298C117.2 15.1998 117.44 16.0602 118.11 16.4502Z" fill="#FFBB33"/>
<path d="M116.3 29.5157C116.911 29.0427 117.024 28.1635 116.551 27.5519C116.078 26.9403 115.198 26.8276 114.586 27.3007C113.975 27.7737 113.863 28.6533 114.336 29.2649C114.809 29.8766 115.688 29.9888 116.3 29.5157Z" fill="#FFBB33"/>
<path d="M119.59 43.32C120.26 42.93 120.49 42.07 120.1 41.4C119.71 40.73 118.85 40.5003 118.18 40.8903C117.51 41.2803 117.28 42.1402 117.67 42.8102C118.06 43.4802 118.92 43.71 119.59 43.32Z" fill="#FFBB33"/>
<path d="M129.99 52.5898C130.37 51.9198 130.14 51.0601 129.47 50.6801C128.8 50.3001 127.94 50.5301 127.56 51.2001C127.18 51.8701 127.41 52.7298 128.08 53.1098C128.75 53.4898 129.61 53.2598 129.99 52.5898Z" fill="#FFBB33"/>
<path d="M143.63 55.4196C143.63 54.6496 142.99 54.0194 142.22 54.0294C141.45 54.0294 140.82 54.6696 140.83 55.4396C140.83 56.2096 141.47 56.8397 142.24 56.8297C143.01 56.8297 143.64 56.1896 143.63 55.4196Z" fill="#FFBB33"/>
<path d="M156.85 51.0305C156.46 50.3605 155.6 50.1405 154.93 50.5305C154.26 50.9205 154.04 51.7809 154.43 52.4509C154.82 53.1209 155.68 53.3409 156.35 52.9509C157.02 52.5609 157.24 51.7005 156.85 51.0305Z" fill="#FFBB33"/>
<path d="M166.09 40.6104C165.42 40.2304 164.56 40.4606 164.18 41.1406C163.8 41.8106 164.03 42.6703 164.71 43.0503C165.39 43.4303 166.24 43.2005 166.62 42.5205C167 41.8505 166.77 40.9904 166.09 40.6104Z" fill="#FFBB33"/>
<path d="M168.88 26.9601C168.11 26.9601 167.48 27.6 167.49 28.38C167.49 29.15 168.13 29.7801 168.91 29.7701C169.68 29.7701 170.31 29.1302 170.3 28.3502C170.3 27.5802 169.66 26.9501 168.88 26.9601Z" fill="#FFBB33"/>
<path d="M164.45 13.7504C163.78 14.1404 163.56 15.0003 163.96 15.6703C164.36 16.3403 165.21 16.5605 165.88 16.1605C166.55 15.7705 166.77 14.9106 166.37 14.2406C165.98 13.5706 165.12 13.3504 164.45 13.7504Z" fill="#FFBB33"/>
<path d="M154 4.53988C153.62 5.21988 153.86 6.07004 154.53 6.45004C155.21 6.83004 156.06 6.58976 156.44 5.91976C156.82 5.23976 156.58 4.38961 155.91 4.00961C155.23 3.62961 154.38 3.86988 154 4.53988Z" fill="#FFBB33"/>
<path d="M286.13 90.0693C291.642 90.0693 296.11 85.6012 296.11 80.0894C296.11 74.5776 291.642 70.1094 286.13 70.1094C280.618 70.1094 276.15 74.5776 276.15 80.0894C276.15 85.6012 280.618 90.0693 286.13 90.0693Z" stroke="#1B5FF3" stroke-width="0.54" stroke-miterlimit="10" stroke-linecap="round"/>
<path d="M294.85 75.23L308.02 71.5801" stroke="#1B5FF3" stroke-width="0.54" stroke-miterlimit="10" stroke-linecap="round"/>
<path d="M272.05 54.98C269.38 64.58 261.31 72.4599 251.68 74.8799C251 67.2799 252.7 59.5699 255.95 52.6699C257.51 49.3499 259.47 46.15 262.24 43.75C266.73 39.87 272.91 38.5301 278.84 38.5601C287.35 38.6101 295.82 41.2999 302.82 46.1499C308.78 50.2899 312.9 55.72 315.85 62.29C316.3 63.29 317.08 64.0598 317.61 65.0098C318.18 66.0398 318.28 67.2201 318.08 68.3701C317.83 69.7901 317.22 71.09 315.75 71.5C314.29 71.91 312.64 71.7802 311.14 71.9702C309.16 72.2302 307.18 72.3598 305.19 72.3198C297.21 72.1898 289.28 69.69 282.63 65.27C278.51 62.53 274.88 59.05 272.07 54.96L272.05 54.98Z" fill="#1B5FF3"/>
<path d="M264.85 90.0693C270.362 90.0693 274.83 85.6012 274.83 80.0894C274.83 74.5776 270.362 70.1094 264.85 70.1094C259.338 70.1094 254.87 74.5776 254.87 80.0894C254.87 85.6012 259.338 90.0693 264.85 90.0693Z" stroke="#1B5FF3" stroke-width="0.54" stroke-miterlimit="10" stroke-linecap="round"/>
<path d="M306.44 83.4805V93.0405C306.44 93.4605 306.78 93.7905 307.19 93.7905H310.28C310.81 93.7905 311.17 93.2605 310.99 92.7705L308.91 87.2207" stroke="#1B5FF3" stroke-width="0.54" stroke-miterlimit="10" stroke-linecap="round"/>
<path d="M234.14 185.9C234.14 187.61 235.52 188.991 237.23 188.991C238.94 188.991 240.32 187.61 240.32 185.9C240.32 184.19 238.94 182.811 237.23 182.811C235.52 182.811 234.14 184.19 234.14 185.9Z" fill="#E3EDFE"/>
<path d="M145.2 189.181C148.061 189.181 150.38 186.861 150.38 184C150.38 181.14 148.061 178.82 145.2 178.82C142.339 178.82 140.02 181.14 140.02 184C140.02 186.861 142.339 189.181 145.2 189.181Z" fill="#E3EDFE"/>
<path d="M234.14 185.9C234.14 187.61 235.52 188.991 237.23 188.991C238.94 188.991 240.32 187.61 240.32 185.9C240.32 184.19 238.94 182.811 237.23 182.811C235.52 182.811 234.14 184.19 234.14 185.9Z" stroke="#1B5FF3" stroke-width="0.48" stroke-miterlimit="10" stroke-linecap="round"/>
<path d="M170.44 196.201C170.44 197.471 171.47 198.5 172.74 198.5C174.01 198.5 175.04 197.471 175.04 196.201C175.04 194.931 174.01 193.9 172.74 193.9C171.47 193.9 170.44 194.931 170.44 196.201Z" fill="#E3EDFE"/>
<path d="M170.44 196.201C170.44 197.471 171.47 198.5 172.74 198.5C174.01 198.5 175.04 197.471 175.04 196.201C175.04 194.931 174.01 193.9 172.74 193.9C171.47 193.9 170.44 194.931 170.44 196.201Z" stroke="#1B5FF3" stroke-width="0.48" stroke-miterlimit="10" stroke-linecap="round"/>
<path d="M238.49 165.71C238.49 166.72 239.31 167.55 240.33 167.55C241.35 167.55 242.17 166.73 242.17 165.71C242.17 164.7 241.35 163.87 240.33 163.87C239.31 163.87 238.49 164.69 238.49 165.71Z" fill="#E3EDFE"/>
<path d="M122.41 197.72C122.41 199.17 123.59 200.35 125.04 200.35C126.49 200.35 127.67 199.17 127.67 197.72C127.67 196.27 126.49 195.09 125.04 195.09C123.59 195.09 122.41 196.27 122.41 197.72Z" fill="#E3EDFE"/>
<path d="M122.41 197.72C122.41 199.17 123.59 200.35 125.04 200.35C126.49 200.35 127.67 199.17 127.67 197.72C127.67 196.27 126.49 195.09 125.04 195.09C123.59 195.09 122.41 196.27 122.41 197.72Z" stroke="#1B5FF3" stroke-width="0.48" stroke-miterlimit="10" stroke-linecap="round"/>
<path d="M145.2 189.181C148.061 189.181 150.38 186.861 150.38 184C150.38 181.14 148.061 178.82 145.2 178.82C142.339 178.82 140.02 181.14 140.02 184C140.02 186.861 142.339 189.181 145.2 189.181Z" stroke="#1B5FF3" stroke-width="0.48" stroke-miterlimit="10" stroke-linecap="round"/>
<path d="M132.46 213.81C131.17 211.62 130.43 209.07 130.43 206.34C130.43 198.19 137.04 191.58 145.19 191.58C147.33 191.58 149.37 192.04 151.2 192.86C152.2 190.23 154.73 188.36 157.71 188.36C161.56 188.36 164.68 191.48 164.68 195.33C164.68 196.89 164.16 198.32 163.3 199.48C166.8 200.01 169.56 202.77 170.1 206.28C171.11 205.3 172.49 204.69 174.02 204.69C177.12 204.69 179.64 207.21 179.64 210.31C179.64 210.99 179.51 211.63 179.3 212.23C180.31 212.42 181.29 212.72 182.22 213.11C182.82 210.64 185.03 208.81 187.68 208.81C190.24 208.81 192.4 210.53 193.08 212.87C194.47 212.35 195.97 212.05 197.53 211.98C197.53 211.98 197.53 211.98 197.53 211.96C197.53 208.86 200.05 206.34 203.15 206.34C206.25 206.34 208.77 208.86 208.77 211.96V212.45C208.96 209.69 211.25 207.5 214.07 207.5C216.72 207.5 218.91 209.44 219.31 211.97C219.4 211.97 219.49 211.97 219.59 211.97C219.45 211.41 219.37 210.82 219.37 210.22C219.37 206.18 222.64 202.91 226.68 202.91C228.09 202.91 229.41 203.32 230.53 204.01C231.36 196.73 237.54 191.07 245.05 191.07C245.31 191.07 245.57 191.07 245.83 191.09C245.34 190.09 245.05 188.96 245.05 187.77C245.05 183.59 248.44 180.2 252.62 180.2C256.8 180.2 260.19 183.59 260.19 187.77C260.19 188.66 260.03 189.51 259.74 190.31C260.46 190.13 261.2 190.03 261.97 190.03C265.86 190.03 269.19 192.4 270.6 195.78C270.84 195.77 271.08 195.74 271.32 195.74C277.82 195.74 283.09 201.01 283.09 207.51C283.09 210.49 281.97 213.21 280.14 215.28C282.97 218.1 284.73 222.01 284.73 226.32H274.77C274.77 226.32 274.77 226.42 274.77 226.47H255.65H250.69H234.12H226.65H212.59H205.12H191.06H183.59H169.53H162.06H154.01H140.53H125.02C125.02 221.03 128.01 216.3 132.44 213.82L132.46 213.81Z" fill="#E3EDFE"/>
<path d="M125.04 226.47C125.04 221.03 128.03 216.3 132.46 213.82C131.17 211.63 130.43 209.08 130.43 206.35C130.43 198.2 137.04 191.59 145.19 191.59C147.33 191.59 149.37 192.05 151.2 192.87C152.2 190.24 154.73 188.37 157.71 188.37C161.56 188.37 164.68 191.49 164.68 195.34C164.68 196.9 164.16 198.33 163.3 199.49C166.8 200.02 169.56 202.78 170.1 206.29C171.11 205.31 172.49 204.7 174.02 204.7" stroke="#1B5FF3" stroke-width="0.48" stroke-miterlimit="10" stroke-linecap="round"/>
<path d="M214.05 207.51C216.7 207.51 218.89 209.45 219.29 211.98C219.38 211.98 219.47 211.98 219.57 211.98C219.43 211.42 219.35 210.83 219.35 210.23C219.35 206.19 222.62 202.92 226.66 202.92C228.07 202.92 229.39 203.33 230.51 204.02C231.34 196.74 237.52 191.08 245.03 191.08C245.29 191.08 245.55 191.08 245.81 191.1C245.32 190.1 245.03 188.97 245.03 187.78C245.03 183.6 248.42 180.21 252.6 180.21C256.78 180.21 260.17 183.6 260.17 187.78C260.17 188.67 260.01 189.52 259.72 190.32C260.44 190.14 261.18 190.04 261.95 190.04C265.84 190.04 269.17 192.41 270.58 195.79C270.82 195.78 271.06 195.75 271.3 195.75C277.8 195.75 283.07 201.02 283.07 207.52C283.07 210.5 281.95 213.22 280.12 215.29C282.95 218.11 284.71 222.02 284.71 226.33" stroke="#1B5FF3" stroke-width="0.48" stroke-miterlimit="10" stroke-linecap="round"/>
<path d="M169.9 209.77C170.1 209.06 170.21 208.31 170.21 207.53C170.21 205.63 169.56 203.88 168.46 202.5" stroke="#1B5FF3" stroke-width="0.48" stroke-miterlimit="10" stroke-linecap="round"/>
<path d="M216.74 221.61C216.74 218.64 214.33 216.23 211.36 216.23" stroke="#1B5FF3" stroke-width="0.48" stroke-miterlimit="10" stroke-linecap="round"/>
<path d="M154.16 194.62C151.67 192.72 148.57 191.59 145.19 191.59" stroke="#1B5FF3" stroke-width="0.48" stroke-miterlimit="10" stroke-linecap="round"/>
<path d="M156.52 196.88C156.18 196.48 155.82 196.091 155.44 195.721" stroke="#1B5FF3" stroke-width="0.48" stroke-miterlimit="10" stroke-linecap="round"/>
<path d="M158.44 199.819C158.12 199.159 157.74 198.539 157.33 197.939" stroke="#1B5FF3" stroke-width="0.48" stroke-miterlimit="10" stroke-linecap="round"/>
<path d="M233.79 210.09C233.79 209.18 233.62 208.3 233.32 207.49C232.72 205.91 231.59 204.6 230.15 203.76" stroke="#1B5FF3" stroke-width="0.48" stroke-miterlimit="10" stroke-linecap="round"/>
<path d="M277.25 217.601C278.14 217.081 278.96 216.45 279.69 215.73C281.22 214.2 282.34 212.241 282.84 210.061" stroke="#1B5FF3" stroke-width="0.48" stroke-miterlimit="10" stroke-linecap="round"/>
<path d="M271.37 219.18C272.58 219.18 273.74 219 274.84 218.66" stroke="#1B5FF3" stroke-width="0.48" stroke-miterlimit="10" stroke-linecap="round"/>
<path d="M139.54 211.971C136.29 211.971 133.28 213.041 130.86 214.851" stroke="#1B5FF3" stroke-width="0.48" stroke-miterlimit="10" stroke-linecap="round"/>
<path d="M271.37 199.379C271.37 194.209 267.18 190.02 262.01 190.02" stroke="#1B5FF3" stroke-width="0.48" stroke-miterlimit="10" stroke-linecap="round"/>
<path d="M245.04 187.811C245.04 189.891 245.88 191.771 247.23 193.141" stroke="#1B5FF3" stroke-width="0.48" stroke-miterlimit="10" stroke-linecap="round"/>
<path d="M259.71 219.75C258.77 215.8 255.23 212.87 251 212.87C247.28 212.87 244.08 215.14 242.73 218.38C242.23 218.25 241.72 218.18 241.19 218.18C238.47 218.18 236.15 219.91 235.27 222.33H226.17" stroke="#1B5FF3" stroke-width="0.48" stroke-miterlimit="10" stroke-linecap="round"/>
<path d="M150.77 221.43C151.88 216.76 156.08 213.279 161.09 213.279C165.5 213.279 169.28 215.97 170.88 219.81L176.99 219.779" stroke="#1B5FF3" stroke-width="0.48" stroke-miterlimit="10" stroke-linecap="round"/>
<path d="M250.51 204.37C251.08 202.79 252.59 201.67 254.36 201.67C254.71 201.67 255.04 201.72 255.37 201.8C256.25 199.69 258.33 198.21 260.75 198.21C263.51 198.21 265.81 200.12 266.42 202.69" stroke="#1B5FF3" stroke-width="0.48" stroke-miterlimit="10" stroke-linecap="round"/>
<path d="M153.15 204.92C152.58 203.34 151.07 202.22 149.3 202.22C148.95 202.22 148.62 202.27 148.29 202.35C147.41 200.24 145.33 198.76 142.91 198.76C140.16 198.76 137.85 200.67 137.24 203.24" stroke="#1B5FF3" stroke-width="0.48" stroke-miterlimit="10" stroke-linecap="round"/>
<path d="M174.02 209L181.67 214.85L200.84 220.06L214.06 208.56L207.6 207.61C205.04 207.66 202.94 205.61 202.94 203.05L202.86 141.99H189.5L189.71 204.12C189.72 206.58 187.86 208.64 185.42 208.89L174.02 209Z" fill="#E3EDFE"/>
<path d="M189.73 141.99V203.79C189.73 206.65 187.43 208.98 184.56 209.01H180.37" stroke="#1B5FF3" stroke-width="0.48" stroke-miterlimit="10" stroke-linecap="round"/>
<path d="M212.29 207.71H207.56C204.96 207.71 202.85 205.6 202.85 203V141.99" stroke="#1B5FF3" stroke-width="0.48" stroke-miterlimit="10" stroke-linecap="round"/>
<path d="M183.28 217.99C183.76 218.59 184.36 219.09 185.05 219.45" stroke="#1B5FF3" stroke-width="0.48" stroke-miterlimit="10" stroke-linecap="round"/>
<path d="M182.45 212.38C182.19 213.03 182.05 213.74 182.05 214.48C182.05 215.39 182.27 216.26 182.66 217.02" stroke="#1B5FF3" stroke-width="0.48" stroke-miterlimit="10" stroke-linecap="round"/>
<path d="M179.46 209.67C179.39 208.98 179.18 208.28 178.83 207.63C178.4 206.82 177.8 206.16 177.1 205.67" stroke="#1B5FF3" stroke-width="0.48" stroke-miterlimit="10" stroke-linecap="round"/>
<path d="M218.64 129.18V136.56C218.64 137.12 216.59 137.58 214.06 137.58C211.53 137.58 209.48 137.12 209.48 136.56V129.18H218.63H218.64Z" fill="#0323BA"/>
<path d="M208.19 131.74H219.95V83.4103C219.95 78.4503 218.22 73.6502 215.06 69.8302C214.55 69.2102 213.59 69.2102 213.08 69.8302C209.92 73.6502 208.19 78.4503 208.19 83.4103V131.74Z" fill="#1B5FF3"/>
<path d="M213.07 69.8301C213.29 69.5601 213.6 69.4099 213.92 69.3799C211.09 73.0999 211.15 78.7302 211.15 83.4102V131.74H208.19V83.4102C208.19 78.4502 209.92 73.6501 213.08 69.8301H213.07Z" fill="#1B5FF3"/>
<path d="M205.73 110.11V125.32C205.73 126.48 201.5 127.42 196.29 127.42C191.08 127.42 186.85 126.48 186.85 125.32V110.11H205.73Z" fill="#002DAA"/>
<path d="M184.17 115.391H208.42V58.6809C208.42 48.4509 204.86 38.5509 198.34 30.6609C197.28 29.3709 195.31 29.3709 194.25 30.6609C187.73 38.5409 184.17 48.4509 184.17 58.6809V115.391Z" fill="#1B5FF3"/>
<path d="M194.25 30.6606C194.71 30.1006 195.34 29.8005 196 29.7305C190.15 37.3905 190.29 49.0107 190.29 58.6807V115.391H184.18V58.6807C184.18 48.4507 187.74 38.5506 194.26 30.6606H194.25Z" fill="#1B5FF3"/>
<path d="M188.74 127.131V134.511C188.74 135.071 186.69 135.531 184.16 135.531C181.63 135.531 179.58 135.071 179.58 134.511V127.131H188.73H188.74Z" fill="#0323BA"/>
<path d="M178.29 129.691H190.05V81.3605C190.05 76.4005 188.32 71.6004 185.16 67.7804C184.65 67.1604 183.69 67.1604 183.18 67.7804C180.02 71.6004 178.29 76.4005 178.29 81.3605V129.691Z" fill="#1B5FF3"/>
<path d="M183.17 67.7798C183.39 67.5098 183.7 67.3601 184.02 67.3301C181.19 71.0501 181.25 76.6799 181.25 81.3599V129.69H178.29V81.3599C178.29 76.3999 180.02 71.5998 183.18 67.7798H183.17Z" fill="#1B5FF3"/>
<path d="M205.38 129.721V137.561C205.38 138.321 201.21 138.94 196.07 138.94C190.93 138.94 186.76 138.321 186.76 137.561V129.721H205.37H205.38Z" fill="#0323BA"/>
<path d="M170.87 125.27H188.48V86.9102L181.98 95.7002C180.11 98.2302 177.91 100.48 175.65 102.67C172.63 105.6 170.86 109.67 170.86 113.98V125.26L170.87 125.27Z" fill="#FFBB33"/>
<path d="M182.21 135.04H208.43V66.9704C208.43 61.1104 205.71 55.5802 201.08 52.0002L198.92 50.3303C197.39 49.1503 195.25 49.1503 193.72 50.3303L191.36 52.1501C186.85 55.6401 184.2 61.0204 184.2 66.7204V91.9001L182.22 104.07V135.03L182.21 135.04Z" fill="white"/>
<path opacity="0.31" d="M195.75 52.01L193.65 50.3904L193.71 50.3401C195.24 49.1601 197.38 49.1601 198.91 50.3401L201.07 52.01C205.71 55.59 208.42 61.1202 208.42 66.9802V135.05H199.04L199.13 86.9202L203.1 66.9802C203.1 61.1202 200.38 55.59 195.75 52.01Z" fill="#B3CDFA"/>
<path d="M220.8 125.27H203.19V86.9102L209.69 95.7002C211.56 98.2302 213.76 100.48 216.02 102.67C219.04 105.6 220.81 109.67 220.81 113.98V125.26L220.8 125.27Z" fill="#FFBB33"/>
<path d="M192.46 134.55H180.36V132.93C180.36 130.84 181.4 128.95 183 128.16L192.46 123.45V134.55Z" fill="#FFBB33"/>
<path d="M184.19 68.6006C185.15 67.7906 186.3 67.3105 187.54 67.3105C190.91 67.3105 193.65 70.8206 193.65 75.1406V77.7603C193.65 78.3803 193.26 78.8804 192.78 78.8804C192.3 78.8804 191.91 78.3803 191.91 77.7603V75.1406C191.91 72.0606 189.95 69.5503 187.55 69.5503C186.21 69.5503 185 70.3305 184.2 71.5605V68.6006H184.19Z" fill="#1B5FF3"/>
<path d="M236.78 228.97H293.42C298.18 228.97 302.04 225.11 302.04 220.35H236.77V228.97H236.78Z" fill="#5A8EFF"/>
<path d="M168.37 228.97H264.85L244.8 175.87C242.98 171.05 238.36 167.85 233.2 167.85H155.02C150.32 167.85 147.07 172.55 148.73 176.95L168.38 228.97H168.37Z" fill="#C0D3FB"/>
</svg>
